<svg xmlns="http://www.w3.org/2000/svg" xmlns:xlink="http://www.w3.org/1999/xlink" width="141.031" height="112.91" viewBox="0 0 141.031 112.91"><defs><clipPath id="a"><rect width="141.031" height="112.91" fill="none"/></clipPath></defs><g clip-path="url(#a)"><path d="M413.862,68.686l.562,1.9.354,1.1-.03,2.569-1.469,2.285-2.7,1.372-2.916,1.4-.66.642a4.414,4.414,0,0,1-.414,2.549c-.631,1-2.386,3.288-2.386,3.288l-.129.827-1.252.962-1.242-1.022-1.34-.9.014-.611.549.011,1.873.223,1.019-.9.634-3.214s-.059-2.219.311-2.511,1.948-2.306,3.379-2.967,1.379-1.36,1.379-1.36l-1.046-.816a14.336,14.336,0,0,1-2.409-2.422c-.537-.906-.751-.792-.751-.792a5.766,5.766,0,0,1-.182,2.547,7.222,7.222,0,0,0-.651,2.819,13.74,13.74,0,0,0,.193,1.763l-.555.624-.59.036a8.585,8.585,0,0,0-1.78-.923,1.611,1.611,0,0,1-.782-.376l.145-.634,1.327-.273a2.016,2.016,0,0,0,.938-1.528,23.488,23.488,0,0,0-.18-2.743L402.864,70l.144-.914-.741-.018-.866-.061-.638.082-.709-.917.166-.463.67-.028.488.3,1.817.118.293-.766,1.259-.161,1.139.547.58.293.655-.418-.584-1.257-2.518-.4-2.837-.555-3.574-1.526-.808.03-.664-.854.073-.892.685-.276.484.56,3.786,1.123,3.592.426.019-.956.977-.65,1.161-.181.986.379.949.856.178.446,1.809.424.917.493Z" transform="translate(-281.375 -43.946)" fill="#00a6b8"/><path d="M206.294,32.042q.054.521.093,1.475c.022.38.081.982.178,1.8s.194,1.661.3,2.527.187-.432.3.256a6.886,6.886,0,0,0,.262,1.214,2.9,2.9,0,0,1,.2.479,4.652,4.652,0,0,1,.172.674,5.565,5.565,0,0,0,.237.881,9.735,9.735,0,0,0,.408,1c.154.334.3.644.426.93a2.556,2.556,0,0,0,.34.606,5.739,5.739,0,0,0,1.152,1.13c.462.344.788.5.986.479a.939.939,0,0,1,.512.177,2.859,2.859,0,0,0,1,.189,7.522,7.522,0,0,0,1.322-.041,3.855,3.855,0,0,0,1.143-.38c.187-.087.4-.192.643-.318s.453-.231.641-.318a12.684,12.684,0,0,0,1.138-.595,5.376,5.376,0,0,0,.792-.5c.033-.035.286-.21.758-.523s1.026-.667,1.662-1.066,1.287-.8,1.945-1.2,1.189-.72,1.59-.961q.877-.538,1.369-.862a4.494,4.494,0,0,0,.59-.431c.028-.069.067-.144.113-.231a1.172,1.172,0,0,1,.172-.236c.136-.145.135-.272,0-.383-.106-.147-.142-.238-.107-.274a.144.144,0,0,1-.075-.087.089.089,0,0,0-.041-.067.1.1,0,0,1-.042-.067c-.143-.143-.181-.248-.112-.321s.037-.132-.092-.18a.253.253,0,0,0-.294.036c-.114.045-.282,0-.5-.13-.189-.168-.357-.211-.5-.129a1.6,1.6,0,0,1-.576.166,4.219,4.219,0,0,0-1.051.391c-.5.238-1.117.545-1.839.921s-1.506.807-2.351,1.294-1.7.991-2.586,1.514q-.986.6-1.734,1a7.573,7.573,0,0,1-.808.409c-.079.01-.191-.072-.341-.245l-.275-.206.5-.253a5.56,5.56,0,0,0,.912-.518c.305-.212.365-.277.178-.191a1.348,1.348,0,0,0-.394.17c-.184.1-.371.2-.556.283l-.664.368-.164-.268a1.749,1.749,0,0,1-.281-.782c-.094-.435-.188-.95-.287-1.545s-.194-1.223-.283-1.884-.113.816-.121.274q-.076-.805-.121-1.638t-.076-1.549c-.019-.477-.035-.875-.046-1.192a1.968,1.968,0,0,1,.022-.579c-.008-.061.121-.182.393-.36s.6-.376.989-.6a13.194,13.194,0,0,1,1.338-.666c.5-.223.986-.425,1.438-.608q1.416-.554,2.035-.823c.413-.178.647-.336.707-.47q.146-.21-.319-.106c-.272.065-.422,0-.453-.184-.054-.089-.056-.16,0-.216a1.358,1.358,0,0,1,.357-.21c.226-.09.357-.147.395-.169s0-.088-.094-.2c-.05-.057-.112-.12-.183-.192a1.392,1.392,0,0,0-.241-.187c-.185-.137-.307-.138-.363,0-.147.082-.223.108-.229.076-.112-.179-.47-.166-1.081.035-.42.147-.636.046-.654-.3a.317.317,0,0,0,.032-.172c-.008-.047-.026-.036-.056.031a1.323,1.323,0,0,1-.365.165c-.209.073-.437.159-.683.25a6.636,6.636,0,0,1-.715.231,3.75,3.75,0,0,1-.406.1c-.092-.052-.167-.027-.23.076a1.115,1.115,0,0,1-.254.1,1.239,1.239,0,0,0-.254.1,1.6,1.6,0,0,0-.577.167c-.373.174-.591.2-.651.079-.006-.032-.023-.189-.048-.473s-.043-.618-.045-1,0-.769.021-1.154.028-.675.037-.868c.017-.13,0-.143-.067-.04a.765.765,0,0,0-.049.439c.026.157-.024.211-.153.162-.164-.012-.194-.072-.09-.181.062-.1.071-.167.026-.2s-.061-.008-.05.054-.024.1-.1.11-.127-.034-.142-.126c-.027-.158-.08-.175-.16-.054a2.111,2.111,0,0,0-.218.674c-.055.168-.119.335-.19.5a1.289,1.289,0,0,1-.21.362,1.224,1.224,0,0,0-.183.358,1.165,1.165,0,0,1-.1.491c-.083.234-.147.337-.19.309-.033-.442-.048-.824-.04-1.144s.021-.666.04-1.036.043-.7.076-.992a4.446,4.446,0,0,1,.126-.877q.122-.543.247-1.061c.084-.346.163-.652.241-.917a1.377,1.377,0,0,1,.217-.505,1.972,1.972,0,0,1,.19-.311,3.6,3.6,0,0,1,.354-.426,4.915,4.915,0,0,0,.424-.7c.026-.083-.044-.035-.216.145a5.474,5.474,0,0,0-.542.546,2.115,2.115,0,0,0-.308.517c-.156.275-.253.413-.291.419.081-.234.15-.426.2-.576a2.893,2.893,0,0,1,.2-.431c.078-.138.132-.241.161-.308a2.911,2.911,0,0,1,1.1-1c.186-.087.291-.123.315-.11s.041.067.056.16c.021.126-.008.194-.086.2a5.188,5.188,0,0,0-.324.781c-.064.217-.119.423-.168.62a1.622,1.622,0,0,0-.064.344c.006.032.047-.022.125-.159s.16-.308.246-.51a3.745,3.745,0,0,1,.46-.871,2.872,2.872,0,0,1,.9-.589,8.476,8.476,0,0,1,1.27-.538,9.541,9.541,0,0,1,1.674-.277,9.107,9.107,0,0,1,1.772-.049.8.8,0,0,0,.452-.007c.093-.042.055-.086-.112-.13-.174-.074-.01-.109.494-.108a11.478,11.478,0,0,1,1.5.1,10.932,10.932,0,0,0,1.652.134,1.927,1.927,0,0,0,.622-.077,1.009,1.009,0,0,0,.293-.227.882.882,0,0,0,.17-.788.941.941,0,0,0-.17-.482,3.639,3.639,0,0,0-.636-.378,10.508,10.508,0,0,0-2.286-.68,7.4,7.4,0,0,0-2.14-.169.829.829,0,0,1-.488-.035,3.974,3.974,0,0,0-1.237-.185,9.228,9.228,0,0,0-1.57,0,3.709,3.709,0,0,0-.742.067c-.294.052-.539.09-.737.114a11.237,11.237,0,0,0-2.363.839,9.48,9.48,0,0,0-2.215,1.4,5.875,5.875,0,0,0-.938.881,4.24,4.24,0,0,0-.614,1.033,7.415,7.415,0,0,0-.429,1.419c-.112.541-.219,1.218-.327,2.029a31.8,31.8,0,0,0-.318,3.9q-.06,2.188.043,3.9a12.624,12.624,0,0,0,.064,1.287m1.569-5.272q.041-1.2.1-2.1t.129-.855l.063.375a3.9,3.9,0,0,1,.044.451,3.624,3.624,0,0,1-.006.5c.017.35.056.832.121,1.448s.132,1.173.216,1.674c.078.469.14.917.192,1.342a2.6,2.6,0,0,1,.033.738.6.6,0,0,1-.421.556c-.25.078-.4-.024-.444-.305a12.062,12.062,0,0,1-.068-1.5q0-1.125.037-2.329" transform="translate(-146.438 -10.757)" fill="#fff"/><path d="M223.39,151.323a.415.415,0,0,0-.429.167c-.038.044-.063.028-.073-.054-.019-.158.129-.256.448-.29.363-.039.494-.093.394-.165a1.209,1.209,0,0,0-.695-.044l-.491-.068c-.005-.04-.086-.052-.245-.036s-.329.048-.508.086a4.778,4.778,0,0,0-.532.149.937.937,0,0,0-.328.156.845.845,0,0,1-.347-.024c-.187-.019-.116-.207.208-.567.236-.349.327-.541.278-.577a.233.233,0,0,1,.108-.254,1.636,1.636,0,0,0,.558-.241c.019-.042-.092-.091-.329-.147a2.316,2.316,0,0,0-.421-.075,2.115,2.115,0,0,0-.415-.015.794.794,0,0,1-.416-.016,1.3,1.3,0,0,1-.2-.525c-.018-.159-.069-.486-.15-.984s-.155-1.022-.22-1.581a39.645,39.645,0,0,0-2.885-11.627,9.957,9.957,0,0,0-1.121-1.94,2.582,2.582,0,0,0-1.045-.674,2.3,2.3,0,0,0-1.71.125,1.831,1.831,0,0,1-.389.225.867.867,0,0,0-.319.216q-.108.255-.416-.016a.822.822,0,0,0-.54-.184,1.988,1.988,0,0,0-.746.385,4.57,4.57,0,0,0-.469.414,5.925,5.925,0,0,0-.49.538,2.808,2.808,0,0,0-.321.488q-.111.226-.037.278c.01.08-.01.122-.053.127-.093.011-.171.12-.239.328-.111.216-.1.3.029.24.039-.043.021-.012-.059.1s-.2.274-.354.494A25.178,25.178,0,0,0,206.4,138.8a46.179,46.179,0,0,0-2.127,4.2q-1.011,2.261-1.881,4.538a30.862,30.862,0,0,0-1.28,4.076q-.381,1.437-.513,1.783a.924.924,0,0,1-.389.5c-.264.11-.4.146-.4.105a1.041,1.041,0,0,1-.4.1,3.533,3.533,0,0,0-.441.079,4.527,4.527,0,0,1-.507.085,10.286,10.286,0,0,1-1.069.3c-.36.08-.605.127-.741.141a1.978,1.978,0,0,0-.721.32c-.086.051-.172.1-.259.149a1.089,1.089,0,0,0-.252.208.3.3,0,0,0-.213.236c-.012.1-.014.375-.006.818l.1.9.656.293q.955.5,0,.605c-.181.021-.271.05-.266.092a1.67,1.67,0,0,0,.179.343.841.841,0,0,0,.453.316,2.611,2.611,0,0,0,.816-.09l.734-.2-.223.446c-.081.092-.161.193-.238.3s-.144.168-.189.171a.341.341,0,0,0-.064.342.322.322,0,0,0,.272.243,4.879,4.879,0,0,0,.839.091c.405-.043.614-.027.626.055a.44.44,0,0,1-.047.186.956.956,0,0,0-.071.282,1.1,1.1,0,0,1-.07.278,2.659,2.659,0,0,0-.123.711c-.018.262-.035.5-.057.7.051.439.038.7-.046.792s-.068.212.043.361c.1.109.172.091.2-.053s.123-.508.286-1.092a6.264,6.264,0,0,1,.389-1.376,4.376,4.376,0,0,1-.042.521c-.033.3-.085.645-.155,1.016s-.135.721-.187,1.051-.1.5-.147.5-.061.089-.042.245c.01.082-.03.126-.122.135s-.2.254-.329.734-.422,1.469-.891,2.976a16.664,16.664,0,0,0-.583,3.546q-.057,1.552.475,1.981a1.344,1.344,0,0,1,.4.5.307.307,0,0,0,.435.192q.265-.087.24.28c-.021.205.123.267.436.195a1.631,1.631,0,0,0,.585-.307,1.547,1.547,0,0,1,.516-.3,1.528,1.528,0,0,0,.448-.293,3.991,3.991,0,0,0,.408-.648,12.209,12.209,0,0,0,.556-1.729q.385-1.405.825-3.24t.845-3.669q.408-1.829.613-3c.115-.577.2-1.011.261-1.3a1.617,1.617,0,0,1,.3-.7,1.489,1.489,0,0,1,.671-.437c.308-.115.751-.263,1.327-.449s1.084-.357,1.524-.527a8.048,8.048,0,0,0,.788-.329,1.183,1.183,0,0,1,.326-.155,2.545,2.545,0,0,0,.531-.179,6.968,6.968,0,0,1,1.974-.82c.135-.014.2-.06.189-.143-.051-.033.038-.063.267-.087.28.05.372.039.271-.03,0-.038.148-.117.456-.23.363-.039.557.04.58.239q.245,2.094.564,4.514t.606,4.573q.285,2.151.508,3.731a17.355,17.355,0,0,0,.331,1.933,17.6,17.6,0,0,0,1.022,3.134,5.006,5.006,0,0,0,1.141,1.785,1.011,1.011,0,0,1,.336.205c.124.107.266.232.423.377a2.024,2.024,0,0,0,.533.428,3.6,3.6,0,0,0,.892-.036l.886-.1-.316-.331a.672.672,0,0,1-.329-.449c-.005-.043.068-.008.22.1a.367.367,0,0,0,.292.151,4.566,4.566,0,0,0,.666-.194,2.544,2.544,0,0,0,.657-.283,1.563,1.563,0,0,0,.295-.426,1.181,1.181,0,0,0,.03-.917,2.862,2.862,0,0,1-.227-.76l-.042-.357-.094.371c-.068.211-.1.3-.108.255s-.059-.295-.161-.767a9.521,9.521,0,0,1-.214-1.253q-.091-.777-.123-1.622c-.021-.564-.039-1.119-.057-1.662a8.2,8.2,0,0,1,.047-1.365,5.7,5.7,0,0,0,.028-1.522c-.047-.8-.084-1.686-.1-2.652s-.054-1.925-.1-2.87a17.757,17.757,0,0,1-.006-2.091q-.037-.9-.03-1.451c0-.364,0-.656,0-.879s-.012-.391-.025-.511-.033-.28-.057-.478a3.631,3.631,0,0,1-.022-1.362c.073-.15.4-.318.975-.5a3.953,3.953,0,0,1,.8-.238,1.943,1.943,0,0,0,.537-.149c.225-.025.3-.173.222-.448-.022-.2-.015-.322.025-.366a1.021,1.021,0,0,1,.472-.112q.748-.082.277-.576a1.076,1.076,0,0,0-.54-.183m-10.569-1.038-.66.254a6.85,6.85,0,0,1-.871.216c-.052-.035-.163-.014-.337.067s-.372.171-.589.275-.556.252-1.017.443a11.674,11.674,0,0,1-1.425.488c-1.019.314-1.6.476-1.735.491s-.164-.023-.081-.114c-.011-.079-.106-.11-.287-.088-.272.029-.411.023-.415-.015a4.818,4.818,0,0,1,.246-1.119c.179-.626.394-1.354.64-2.19s.5-1.691.769-2.568.5-1.609.7-2.2c.109-.255.25-.613.426-1.076s.374-.93.594-1.4.422-.9.6-1.309.312-.669.388-.8A.644.644,0,0,0,210,139.2a3.823,3.823,0,0,1,.33-.7,7.774,7.774,0,0,1,.637-1.038c.078-.13.164-.27.261-.423s.182-.293.26-.421c.236-.35.375-.527.421-.532a1.758,1.758,0,0,0,.125.472,1.918,1.918,0,0,1,.127.5,2.708,2.708,0,0,0,.133.562,12.674,12.674,0,0,1,.228,1.642q.075.932.106,1.777c.025.6.044,1.349.055,2.236s.035,1.764.068,2.627.055,1.642.067,2.327,0,1.13-.017,1.335Z" transform="translate(-138.649 -93.667)" fill="#fff"/><path d="M354.341,253.832c-.477.1-.979.192-1.513.28-.951.16,1.441-.224,1.513-.28" transform="translate(-250.454 -180.297)" fill="#fff"/><path d="M329.474,120.506s.526-2.542-2.545-3.38c-1.588-.433-5.717.553-9.332,1.607-.011-.084-.021-.176-.031-.277-.029-.485-.1-.716-.207-.689s-.143.314-.1.852c-.006.08-.01.152-.017.218-.207.06-.41.121-.612.182a41.87,41.87,0,0,0,.4-6.007c.007-.053.014-.1.021-.157a11.133,11.133,0,0,0,.079-1.217q.071-1.256.051-1.912c0-.387.06-.594.171-.623.069.037.119-.086.155-.373-.076-.253-.032-.4.133-.447.109-.029.143-.119.1-.273s-.041-.236.013-.25c.111-.031.128-.172.053-.426a3.515,3.515,0,0,1-.071-.684c-.016-.353-.042-.732-.074-1.136a10.052,10.052,0,0,1-.033-1.147c.011-.361-.147-2.7-.139-2.871a.9.9,0,0,0,.087-.6c-.016-.05.017-.141.1-.273.04-.065.031-.2-.033-.4s-.034-.32.075-.35c.055-.013.1-.164.134-.448-.073-1.025-.141-1.9-.209-2.628s-.166-1.7-.3-2.934-.463-4.7-.661-6.242-.4-3.017-.607-4.42-.408-2.644-.581-3.726-.311-1.776-.4-2.081-.214-.412-.364-.318c-.094.082-.159.113-.193.093s-.064-.16-.084-.431a20.086,20.086,0,0,0-.413-2.121q-.257-1-.468-1.115-.677-.481-.494.131.093.307-.355.011c-.28-.146-.437-.27-.467-.374-.058-.2-.366-.232-.915-.086-.111.028-.19.16-.238.392-.006.032-.013.057-.019.085l-.37,0-.047-.055c-.382-.285-.674-.262-.87.065a.491.491,0,0,1-.345.336c-.219.058-.393.573-.516,1.541a30.833,30.833,0,0,0-.187,3.845c0,.993,0,1.776-.006,2.355s0,1.131,0,1.65.018,1.108.038,1.764.076,1.549.177,2.676a1.726,1.726,0,0,1,.062.356,1.484,1.484,0,0,0,.04.278,8.856,8.856,0,0,1,.012,2.451,1.46,1.46,0,0,0-.057.552c0,.3,0,.647,0,1.032.125,1.013.132,1.534.024,1.563-.057.014-.067.072-.038.174.139.075.154.124.046.152-.165.045-.216.169-.157.371a9,9,0,0,0-.021,1.121c.013.629.019,1.356.031,2.179q-.01,1.16.026,3.211c.023,1.371.222,4.679.252,5.773q.116,4.841.016,8.085a55.543,55.543,0,0,1-.457,5.758c-.183,1.259-.608,4.672.072,5.394.838.89,1.2,1.518,2.879,1.1.8-.2,2.548-.534,4.387-.872a.857.857,0,0,1-.038.187c.031.1.1.054.226-.139a.8.8,0,0,1,.073-.1c1.9-.348,3.866-.7,4.963-.906.444-.017.915-.048,1.432-.1.188-.019.255-.019.241-.01.535-.111,1.039-.227,1.5-.348a4.261,4.261,0,0,0,1.663-.686c.2-.109.171-.128-.1-.053-.19.156-.309.16-.354.007-.029-.1.266-.232.881-.4-.007.03-.005.053.019.064s.1-.011.194-.094c.22-.056.305-.163.259-.319q-.1-.05.225-.138l.25-.066.082-.023c-.029-.1.2-.218.7-.348q1.44-.544,1.53-1.146a.866.866,0,0,0,.082-.311.994.994,0,0,1,.145-.41c.047-.232.05-.37.009-.416a2.775,2.775,0,0,0-.568-.262" transform="translate(-219.075 -51.914)" fill="#fff"/><path d="M136.66,52.721q-.046-1.012-.074-2.106a14.836,14.836,0,0,1,.014-1.557c-.012-.815-.037-1.448-.071-1.9s-.063-.806-.083-1.06-.044-.445-.065-.578a2.839,2.839,0,0,0-.143-.493c-.126-.527-.157-.83-.089-.908.1-.114.067-.33-.105-.65-.14-.356-.157-.576-.049-.656a.31.31,0,0,0,.187-.329,5.073,5.073,0,0,1-.044-.631c-.007-.288,0-.585,0-.893a7.448,7.448,0,0,1,.071-.85,2.941,2.941,0,0,1,.1-.5c.022-.1.045-.522.065-1.257s.032-1.566.041-2.5-.015-1.851-.06-2.746a19.919,19.919,0,0,0-.176-1.993,8.038,8.038,0,0,0-.382-1.763,2.843,2.843,0,0,0-.433-.992c-.085-.024-.179-.046-.282-.068a.943.943,0,0,0-.275-.018c-.315.038-.44.02-.372-.057.012-.172-.086-.219-.294-.143a3.376,3.376,0,0,0-.8.479l-.694.542.009-.306a1.606,1.606,0,0,0,.041-.31.743.743,0,0,1,.049-.262c.049-.177.025-.266-.077-.272s-.218.07-.355.222a.51.51,0,0,1-.393.175c-.161,0-.211-.05-.149-.161-.01-.066-.1-.14-.277-.222-.219-.108-.318-.1-.3.037.01.067-.077.145-.262.236a.274.274,0,0,0-.241.181,4.145,4.145,0,0,0-.151.733,2.643,2.643,0,0,0-.061.924c.044.131.137.153.284.067.105-.081.145.034.116.344.043.267,0,.408-.112.421-.079.01-.105.1-.076.265.021.134.011.2-.028.206a.484.484,0,0,0-.112.421c-.028.072-.1.234-.22.486s-.255.523-.408.814a57.962,57.962,0,0,0,.426,6.715c.01.051.019.1.03.159l-.281,0c-.276,0-.574,0-.9,0,0,0-3.55,1.149-6.4,2.376-.245.115-.532.247-.891.409-.2.09-.385.175-.566.259-.064-1.143-.118-2.359-.162-3.659q-.083-2.334-.123-4.42c-.014-.813-.028-1.4-.046-1.754a1.561,1.561,0,0,0-.189-.766,2.308,2.308,0,0,1-.157-.594c-.045-.267-.087-.532-.131-.8a5.842,5.842,0,0,0-.123-.928,2.038,2.038,0,0,0-.371-.594,3.318,3.318,0,0,0-.507-.523c-.042-.012-.1.02-.165.1a.434.434,0,0,0-.145.4.365.365,0,0,0,.209.357c.078-.01.107.174.089.549l-.019.614-.275-.934a4.237,4.237,0,0,1-.263-.681c-.052-.2-.081-.313-.086-.347-.01-.066-.063-.008-.153.172s-.193.414-.308.7a9.755,9.755,0,0,0-.352,1.343,18.475,18.475,0,0,0-.245,1.992q-.219,1.608-.337,2.716c-.081.741-.143,1.387-.2,1.936a13.79,13.79,0,0,0-.066,1.435q.011.611.042,1.167a8.063,8.063,0,0,0,.041.81c.029.3.047.59.051.861s.02.609.046,1.015.046.774.063,1.113c.035.309.055.565.057.771-.2.118-.228.222-.094.312.09.079.027.17-.189.266-.1.046-.184.088-.256.128-.06-.469-.118-.942-.173-1.423-.089-.789-.141-1.47-.155-2.047-.046-1.014-.084-1.985-.118-2.918s-.042-1.778-.025-2.544.039-1.407.078-1.922a5.646,5.646,0,0,1,.13-1.035A4.662,4.662,0,0,0,116.8,32.8a6.262,6.262,0,0,1,.057-1.307c.064-.466.117-.685.163-.656.039,0,.053.2.04.608a1.794,1.794,0,0,0,.007.408c.014.1.027.166.033.2.039,0,.068-.187.092-.546s.033-.641.04-.846c-.021-.132.006-.205.086-.214s.081-.113.009-.309c-.027-.165-.023-.251.017-.255q.135.086.18-.2a.716.716,0,0,0-.114-.521c-.074-.195-.076-.33-.008-.406.074-.043.067-.077-.017-.1a.756.756,0,0,0-.753.193,2.265,2.265,0,0,0-.142.6c-.061.363-.13.8-.2,1.323s-.151,1.047-.224,1.583-.115,1.008-.128,1.417A28.921,28.921,0,0,0,115.769,37a26.3,26.3,0,0,0,.133,2.839c.021.373.036.71.046,1.014a1.981,1.981,0,0,1-.028.565c-.018.137.01.185.085.142.068-.076.108-.064.125.035.012.067-.022.105-.1.115a3.43,3.43,0,0,0-.03,1.278,11.579,11.579,0,0,0,.119,1.285c.075.586.173,1.237.29,1.953s.24,1.458.366,2.224.242,1.474.348,2.124.208,1.207.305,1.671a3,3,0,0,0,.222.789c.115.225.143.39.082.5-.035.039-.036.149-.006.332a3.761,3.761,0,0,0,.161.617c.078.229.165.516.262.862a8.614,8.614,0,0,1,.213.917c.082.262.158.541.227.839a2.072,2.072,0,0,0,.264.681,2.14,2.14,0,0,0,.255.455c.048.044.169.054.366.03.237-.028.359-.025.363.008q-.043.108.311.421a1.723,1.723,0,0,0,.48.35.227.227,0,0,0,.271-.007c.09-.062.11-.124.06-.186-.1-.09.116-.148.634-.178a1.659,1.659,0,0,0,.593-.071.348.348,0,0,0,.153-.172,1.3,1.3,0,0,1,.236-.386q.5-.264.292-2.635a12.739,12.739,0,0,1,0-1.324c0-.026.012-.059.015-.085a61.568,61.568,0,0,1-1.322-7.093.382.382,0,0,0,.154-.032c.125-.055.324-.132.6-.226s.567-.187.868-.278.582-.162.842-.218a4.3,4.3,0,0,1,.506-.094q.162-.027,1.237-.352t2.439-.758q1.363-.435,2.65-.9c.137-.049.259-.1.386-.141.03.295.064.64.1,1.044.056,1.081.085,1.8.083,2.157a1.209,1.209,0,0,1-.1.649,8.107,8.107,0,0,1-.311-2.256c.04-.243.01-.308-.093-.194a7.649,7.649,0,0,0,.221,2.064c.087.534.141.935.166,1.2s0,.323-.064.16l-.123-.394.04.25a.833.833,0,0,0-.005.333.544.544,0,0,1-.014.282q.017.1.072.628c.037.353.085.762.143,1.232s.118.972.186,1.507.138,1.019.21,1.454a17.569,17.569,0,0,0,.388,1.813,7.945,7.945,0,0,0,.408,1.2c.08.227.211.3.4.208.152-.053.249.038.287.269a1.076,1.076,0,0,0,.216.586.962.962,0,0,0,.515.194,1.671,1.671,0,0,1,.391,0,1.54,1.54,0,0,0,.335.01q.243.023.212-.178c-.024-.134.105-.217.381-.251a4.1,4.1,0,0,0,.818-.175c.226-.078.336-.152.325-.218a1.194,1.194,0,0,1,.18-.378.323.323,0,0,0,.144-.222,4.343,4.343,0,0,0,.053-.592c.011-.29,0-.714-.028-1.271s-.068-1.325-.11-2.307m-7.7-12.218-.393.141a4.123,4.123,0,0,1,.393-.141M117.4,48.577c-.078-.478-.164-1.049-.255-1.7a.205.205,0,0,1,.167.048c.029.305.071.684.125,1.141a4.148,4.148,0,0,1,.057.527,3.488,3.488,0,0,0,.04.429l.066.4a2.766,2.766,0,0,1-.2-.843m4.144-1.773c0-.015,0-.031,0-.046.366-.132.785-.28,1.25-.445.286-.1.579-.2.875-.309-.791.3-1.525.573-2.12.8M135.7,41.547c-.033.156-.071.245-.107.267a.714.714,0,0,1-.231.053c-.058.007-.11.011-.157.013,0-.047,0-.094,0-.146a.45.45,0,0,0-.052-.18q-.18-.282-.042-.254c.169-.045.191-.123.063-.231a2.466,2.466,0,0,0-.627-.337,3.629,3.629,0,0,0-.044-.441v-.029a1.347,1.347,0,0,1,.175-.034c.183-.021.265-.065.244-.132s-.124-.118-.308-.157a.523.523,0,0,1-.107-.044c0-.039,0-.076,0-.115,0-.085-.008-.155-.012-.212a.415.415,0,0,0,.11-.214c.049-.171.013-.229-.106-.178a2,2,0,0,0-.007-.415,1.131,1.131,0,0,0,.022-.411,4.207,4.207,0,0,1,0-.56,1.6,1.6,0,0,0,.069-.492c-.005-.154-.011-.246-.015-.28s.03-.054.109-.065.132-.169.164-.478c0-.237.023-.342.068-.314.017.1.056.1.119-.014q.1-.113.125.393c-.019.377,0,.527.074.45a2.277,2.277,0,0,0,.241-.743,3.567,3.567,0,0,1,.109-.421.341.341,0,0,0,.038-.158c.006.034.018.118.039.25a1.869,1.869,0,0,1,.016.456c-.008.206,0,.588.008,1.146s.024,1.128.038,1.7c-.008.683,0,1.2.013,1.554a3.171,3.171,0,0,1-.023.769" transform="translate(-82.231 -19.806)" fill="#fff"/><path d="M182.357,251.259c0,.228.005.508.024.847,0,.1,0-.234-.024-.847" transform="translate(-129.527 -178.469)" fill="#fff"/><path d="M182.31,248.748c.027-.317.011-.457-.046-.42,0,0,0,.005-.006.006.012.317.021.6.029.839a3.488,3.488,0,0,1,.022-.425" transform="translate(-129.458 -176.383)" fill="#fff"/><path d="M53.175,92.056c-.182.021-.289-.123-.325-.434-.018-.186-.158-.327-.411-.423a.341.341,0,0,1-.326-.434c.035-.255-.071-.37-.311-.343q-.455.052-.434.24-.063.291-.554-.03-.779-.383-1.079.22a.988.988,0,0,1-.7.362c-.363.042-.572.382-.623,1.015-.177.65-.294.976-.352.983.006.065-.166-.105-.516-.506-.449-.764-.845-.719-1.179.137q-1.046,2.2-1.23,8.066-.089,1.707-.1,5.342t-.026,8.164c-.008,3.019-.578-10.38-.536-7.211s.076,6.015.106,8.526c.034,1.443-.429,1.542-.433,3.178s-.018,2.927-.033,3.873a36.782,36.782,0,0,1-.083,4.3c-.109,1.239-.225,1.864-.345,1.88s-.311-.325-.57-1.022-.555-1.555-.881-2.585-.667-2.17-1.018-3.422a18.973,18.973,0,0,1-.412-2.089q-.366-1.655-.619-3.136t-.558-3.426c-.2-1.3-.419.273-.646-1.526s-.484-4-.77-6.61c-.3-2.731-.563-3.061-.79-5.142a31.685,31.685,0,0,0-.475-3.484,2.93,2.93,0,0,0-1.1-1.663c-.6-.5-1.059.311-1.361.345a.641.641,0,0,1-.53-.223,7.412,7.412,0,0,1-.813-1.132,4.36,4.36,0,0,0-1.06-1.293q-.394-.237-.807.189a1.049,1.049,0,0,1-.706.269,1.113,1.113,0,0,0-.734.347c-1.656,1.033-5.849,5.028-9.761,20.009-.049.183-.092.355-.136.532-.134.293-.256.58-.351.852-.347,1.017-1.168,2.332-1.34,2.981q-.172.963-.352.982C17,115,16.251,113.3,15.867,111.678c-.456-1.929-.592-4.015-1.065-6.1s-.849-3.831-1.123-5.249q-.389-1.839-.965-4.18c-.386-1.558-2.419-12.276-2.657-13.32q-.345-1.467-.73-3.312c-.257-1.227-1.457-8.436-1.66-9.171q-.223-1.2-.471-2.209a5.2,5.2,0,0,0-.471-1.358,2.287,2.287,0,0,1-.3-.674,3.972,3.972,0,0,1-.1-.508.6.6,0,0,0-.423-.517q-.387-.143-.546.062c-.04.195-.128.237-.262.125-.281-.344-.484-.226-.6.354A9.444,9.444,0,0,0,4.368,67.9a9.643,9.643,0,0,1,.086,1.217c-.011.19-.075.292-.2.305-.128-.047-.175-.057-.141-.03s.116.1.252.206c.262.159.372.32.329.482s-.219.261-.52.295q-.363.042-.3.6c.04.373.971,6.8.852,6.811-.062.007-.125.267-.192.777-.039.193-.076.432-.1.719a3.676,3.676,0,0,1-.185.824,2.9,2.9,0,0,0-.242.735c-.059.289-.112.531-.15.725-.033.256-.087.2-.157-.171s-.157-1.019-.26-1.951L2.254,71.258a4.442,4.442,0,0,1,0-.849c.066.054.107,0,.121-.157a2.057,2.057,0,0,0-.123-.692q-.1-.931-.012-.944c.182-.02.188-.24.02-.661-.04-.373.012-.441.161-.207.323.718.391.521.214-.591-.091-.8-.182-1.079-.274-.818-.168.146-.261.14-.278-.014A1.526,1.526,0,0,1,2.2,65.7a.314.314,0,0,0,.052-.384q-.113-.174-.262.126c-.163.206-.35.166-.566-.124q-.425-.516-.182.023c.148.234.162.357.042.372-.115.077-.185-.01-.211-.26q-.1-.929-.757-.195L0,65.763.449,70.71c.121,1.119,1.234,8.511,1.4,9.719s.326,2.274.488,3.2S4.375,94.661,4.516,95.116s.223.494.243.112c-.021-.185.019-.08.126.317s.2.9.3,1.521.217,1.281.357,1.988.234,1.31.288,1.806c.11,1,.067,1.439-.129,1.336-.122.013-.182.162-.182.445s.047.86.144,1.727l.437,4.008c.09.807.178,1.489.271,2.044s.248,1.292.471,2.21a3.831,3.831,0,0,1,.25,1.007q.135.834.338,1.847.863,3.681,1.859,6.91a60.238,60.238,0,0,0,2.7,7q.625,1.531,1.1,2.514a16.338,16.338,0,0,0,.919,1.685,7.929,7.929,0,0,0,.965,1.258c.346.37.789.8,1.336,1.3l1.11.911,1.544-.177a7.653,7.653,0,0,0,1.34-.342,2.2,2.2,0,0,0,.664-.643,4.54,4.54,0,0,1,1.089-.973,3.629,3.629,0,0,0,1.084-.6c.251-.219.309-.379.174-.493-.012-.123.011-.189.071-.2.12-.012.169-.143.142-.391-.035-.311.008-.47.13-.486.181-.022.259-.157.231-.406s-.012-.375.051-.382c.118-.013.167-.145.141-.392.012-.445.013-.71,0-.8s.043-.147.165-.16.169-.145.141-.395c-.069-.619-.042-.94.08-.954.183-.022.2-.148.049-.381-.129-.046-.111-.176.051-.383.12-.014.106-.137-.042-.373-.021-.183.029-.288.152-.3.181-.022.2-.087.07-.2q.109-1.519.274-2.532t.325-2.064a13.924,13.924,0,0,1,.361-1.74,5.294,5.294,0,0,0,.165-1.009,2.815,2.815,0,0,1,.105-.718,4.073,4.073,0,0,1,.129-.914c.1-.482.209-1.013.331-1.6s.214-1.107.285-1.588c.049-.286.1-.565.155-.84a.527.527,0,0,1,.021-.077c0-.01,0-.027,0-.039.051-.27.105-.535.161-.8.087-.321.162-.665.227-1.025.024-.1.048-.2.073-.3a13.418,13.418,0,0,0,.386-1.5,31.134,31.134,0,0,1,2.777-7.129l-.161-.034c.059-.081.112-.071.161.034.147.236.2.1.14-.394a2.421,2.421,0,0,1,.138-1.242c.141-.395.22-.512.239-.357s.007.643-.025,1.463a12.326,12.326,0,0,0-.153,1.953q-.036,1.373,0,2.972t.1,3.385c.039,1.19.078-.86.121.078a35.49,35.49,0,0,0,.777,5.853,46.148,46.148,0,0,0,1.128,4.84,51.223,51.223,0,0,0,2.165,5.928,32.8,32.8,0,0,0,2.546,4.8c.223.354.445.7.667,1.055a7.8,7.8,0,0,1,.456.8,2.225,2.225,0,0,1,.362.384c.108.146.2.278.272.392.2.1.3.219.313.342s.326.45.935.977a10.294,10.294,0,0,0,1.6,1.183q1.673,1.038,2.1.7c.288-.157.248-.248-.122-.268-.437-.074-.229-.415.623-1.015a1.645,1.645,0,0,1,.561-.348,1.684,1.684,0,0,1,.619.211,1.6,1.6,0,0,0,.666.207,4.347,4.347,0,0,0,.8-.283c.288-.158.52-.28.7-.363a1.454,1.454,0,0,1,.351-.134c.06-.007.088-.04.08-.106-.012-.12.18-.333.576-.63a5.126,5.126,0,0,0,1.066-1.587,13.636,13.636,0,0,0,.894-2.319c.089-.324.162-.615.227-.875a1.8,1.8,0,0,0,.074-.576,1.6,1.6,0,0,0,.176-.488c.017-.128.093-.7.225-1.727.073-.447.131-.895.176-1.339a4.438,4.438,0,0,1,.136-.865c.017-.944.039-1.732.061-2.364s.025-1.292.012-1.983a10.876,10.876,0,0,1-.074-2.351,2.213,2.213,0,0,0,.021-.663c-.028-.248.428.974.408.789a.941.941,0,0,1-.012-.944c0-.038-.011-.161-.02-.348a1.133,1.133,0,0,1,.181-.435c-.047-1.412-.12-3.507-.19-5.532-.035.9-.083,1.924-.146,3.086.006.19.014.394.03.627.017.291.031.577.043.863-.214.69-.262.045-.139-1.951.023-.421.045-.824.067-1.213a7.194,7.194,0,0,1,.008-.834q.007-1.6.009-4.1c0-.959-.008-1.816-.026-2.575.039,1.145.1,2.759.155,4.426,0-.118.01-.237.014-.351q.064-1.892.053-4.533c.019-.946.029-1.7.027-2.267s.006-1.07.019-1.512.024-.9.032-1.373.033-1.088.073-1.847c-.006-.628,0-1.226.035-1.8s.06-.983.1-1.237A6.2,6.2,0,0,0,53.039,95c-.021-.185.027-.286.149-.3.061-.006.08-.1.062-.288.038-.194.071-.448.1-.768s.051-.634.078-.953c.019-.379-.065-.59-.252-.632m-1.16,8.718a10.093,10.093,0,0,1-.128,1.336c-.068.512-.116.91-.145,1.2s-.063.558-.1.813-.078.544-.134.864-.112.8-.165,1.434a3.608,3.608,0,0,0-.134.866,3.8,3.8,0,0,1-.065.667c-.034.256-.07.479-.11.674.006.062.01.251.015.564s0,.723,0,1.226c.033,1.444.006,2.014-.089,1.708a17.543,17.543,0,0,1-.226-2.9q-.214-2.8-.268-4.968t.074-4.349a14.046,14.046,0,0,1,.1-1.616c.038-.192.1-.167.191.072.162.359.277.44.349.242a2.646,2.646,0,0,0,.023-1.038c-.063-.56-.053-.764.025-.618a6.677,6.677,0,0,1,.319,1.238A9.687,9.687,0,0,1,51.8,99.2c.07.369.114.616.128.74a1.855,1.855,0,0,1,.09.838" transform="translate(0 -46.12)" fill="#fff"/><path d="M414.577,100.79a.464.464,0,0,0-.091-.063l.033-1.072a24.67,24.67,0,0,0-2.513-1.537c-1.117-.558-1.816,0-4.329,0a13.838,13.838,0,0,0-2.81.382c-.262.015-.575.043-.942.086-.169.022-1.307.429-2.624.912-.292.1-.464.157-.464.157l-5.28,1.473a6.714,6.714,0,0,1-.139-.846c-.046-.528-.12-.777-.226-.753s-.129.337-.068.921a2,2,0,0,1-.089.7s-.008.006-.008.01L394.78,90.3c.023-.068.054-.118.094-.129.072.042.116-.089.139-.4-.082-.277-.045-.438.116-.481.105-.027.134-.123.085-.291s-.05-.255,0-.269c.107-.028.118-.183.034-.459a4.631,4.631,0,0,1-.094-.741q-.042-.571-.11-1.229c-.047-.436-.17-3.022-.173-3.411s0-.674,0-.855a1.061,1.061,0,0,0,.062-.645.478.478,0,0,1,.085-.292.709.709,0,0,0-.045-.438c-.068-.222-.048-.347.06-.376.052-.013-.023-2.622,0-2.927-.106-1.111-.2-2.059-.3-2.846s-.223-1.844-.4-3.179-.379-2.838-.623-4.513-.7-7.725-.957-9.246-.489-2.871-.7-4.045-.364-1.929-.464-2.262-.223-.45-.365-.354c-.09.084-.151.115-.187.094s-.067-.176-.1-.47c-.129-.8-.288-1.572-.477-2.3s-.356-1.135-.5-1.218q-.68-.543-.479.125c.068.222-.049.223-.344,0-.28-.165-.437-.3-.47-.417-.066-.221-.367-.263-.9-.125-.105.028-.178.169-.218.417s-.074.38-.1.386-.136-.114-.324-.364c-.386-.318-.668-.306-.849.043a.457.457,0,0,1-.323.353c-.214.056-.364.607-.449,1.648a36.126,36.126,0,0,0-.045,4.147c.033,1.072.061,1.919.075,2.543s.038,1.22.063,1.783.126,2.633.168,3.342.266,4.692.4,5.915a2,2,0,0,1,.074.386,1.878,1.878,0,0,0,.047.3q.1.336-.138.4a1.644,1.644,0,0,0-.037.594c.012.327.025.7.034,1.115q.239,1.647.076,1.689c-.051.013-.061.077-.026.187.138.084.154.139.049.167-.161.041-.206.175-.139.4a9.765,9.765,0,0,0,.019,1.209q.05,1.022.1,2.356c.022.836.18,4.44.253,5.919s.243,4.983.311,6.163q.282,5.235.3,8.734t-.27,6.549a14.587,14.587,0,0,1-.307,2.414c-.232.48-.542,1.131-.812,1.842a5,5,0,0,0-.554,2.15,2.485,2.485,0,0,0,.716,2.276c1.523,1.268,11.463-3.111,13.263-3.922,2.258-.6,6.511-2.007,7.394-2.079q1.718-.135,3.365-.388c1.1-.168-2.529.28-1.676.056a3.617,3.617,0,0,0,1.6-.689c.195-.11.16-.132-.106-.061-.179.166-.293.168-.345,0-.031-.107.271-.251.908-.417s.973-.192,1.006-.084c-.036.071-.038.116,0,.136s.1-.009.187-.093c.212-.056.293-.168.242-.335q-.1-.061.214-.144l.24-.064.082-.024c-.034-.109.187-.228.665-.352q1.387-.541,1.449-1.189a.9.9,0,0,0,.07-.336,1.111,1.111,0,0,1,.127-.437c.04-.248.037-.4,0-.448m-14.926,6.38q.318-.07.625-.141c-.232.08-.457.16-.671.237ZM389.482,48.5c.052-.014.123.176.214.571a15.728,15.728,0,0,1,.252,1.553c.059.585.559,1.088.658,1.512s.155.665.171.719a.7.7,0,0,1-.007.541,3.765,3.765,0,0,0-.01.676c.012.329.022.7.033,1.116s-.4.822-.4,1.209a1.9,1.9,0,0,1-.107.793c-.019.125-.034.265-.046.416a1.036,1.036,0,0,0,.008.313,23.925,23.925,0,0,1,.048,2.518,4.458,4.458,0,0,1-.143.532c-.017.035-.034-.066-.048-.3-.047-.166-.178-2.093-.252-2.915s-.121-1.735-.138-2.75q-.052-1.607-.228-3.045a17.084,17.084,0,0,1-.164-1.979,11.95,11.95,0,0,1-.06-1.2c.006-.271.076-.364.218-.28m-2.543.124c-.027-.47.012-.721.118-.749l.677,2.251a13.235,13.235,0,0,1,.9,2.167c.153.891-.108,1.852.063,2.887s.4,3.506.567,4.54.3,1.991.389,2.867c.009.417.2,3.844.289,4.238s.16.678.21.845c.151.5.2.278.143-.668-.012-1.2-.125-4.791-.054-4.751s.284,3.7.37,4.938a3.19,3.19,0,0,0,.05.886c.056.285.1.483.135.594a4.376,4.376,0,0,1,.094.74c.03.382.05.782.058,1.2s0,.822-.021,1.219-.037.684-.04.864a5.879,5.879,0,0,0,.036.98c.042.529.086,1.145.127,1.854.126.989.348,4.622.45,6,.089,1.233.256,4.189.363,5.8l-.161,1.034c-.014-.192-.028-.384-.039-.583-.047-.348-.1-.8-.15-1.355s-.211-3.357-.278-4.058-.126-1.421-.178-2.157-.224-3.872-.3-4.512a5.3,5.3,0,0,0-.193-1.074c-.133-.536-.264-1.114-.393-1.74q-.27-1.188-.594-2.543t-.591-2.543c-.182-.793-.46-4.523-.564-5.156s-.172-1.093-.2-1.388c-.09-.875-.261-3.225-.376-4.183s-.211-1.849-.285-2.669-.142-1.521-.2-2.1a6.512,6.512,0,0,1-.063-1.063.931.931,0,0,0,.038-.593c-.05-.257-.107-.5-.173-.72a5.531,5.531,0,0,1-.216-1.294m17.97,56.8.361-.236.291-.017a3.5,3.5,0,0,1-.653.253" transform="translate(-273.579 -33.045)" fill="#fff"/><path d="M18.292,7.93c0,.074.165.162.49.26l.481.1-.287.289a1.591,1.591,0,0,0-.341.4c0,.037.094.1.276.185s.4.182.64.284a4.336,4.336,0,0,0,.667.227,2.627,2.627,0,0,0,.721.059c.278-.01.625-.042,1.042-.093s5.378-1.332,6.052-1.432c.793-.1,1.347-.188,1.665-.256s.767-.168,1.361-.3c.2-.044.453-.109.769-.2a1.22,1.22,0,0,1,.356-.067c.082.071.054.332-.087.784q-.257,1.071-.467,2.447t-.3,2.105c.01.222.032.968.062,2.232s.093,2.725.182,4.377.266,5.439.359,7.184.184,3.234.275,4.46c0,.111.009.205.012.309l-.1-.207s.14,12.145,2.233,12.145a5.376,5.376,0,0,0,.909-.077l1,.016a7.284,7.284,0,0,0,.778.028c.2-.007.3-.03.3-.066a1.554,1.554,0,0,0-.255-.382,1.034,1.034,0,0,1-.113-.254c.034-.024.065-.045.094-.068a.172.172,0,0,1,.007.042c0,.074.085.11.244.1a4.764,4.764,0,0,0,1.063-.318,6.641,6.641,0,0,0,.764-.278c.118-.061.155-.128.112-.2-.122-.07-.147-.143-.069-.22.038-.039.017-.056-.062-.054-.161.006-.209-.029-.154-.106a.911.911,0,0,1,.379-.236l.346-.237c0-.036-.016-.148-.043-.332s-.066-.408-.116-.668-.107-.646-.168-1.166-.1-1.038-.125-1.559q-.093-.78-.141-1.307c-.037-.353-.054-.548-.057-.584a3.577,3.577,0,0,1-.158-.946c-.065-.592-.129.745-.246-.146-.061-.447-.111-1-.158-1.67s-.076-1.311-.081-1.924,0-1.146.023-1.593a1.575,1.575,0,0,1,.149-.788,2.15,2.15,0,0,0,.107-.981q-.005-.867-.041-3.156c-.029-1.637-.145-5.144-.174-6.353s-.074-2.287-.134-3.236-.135-1.789-.225-2.531-.191-1.482-.3-2.223q-.229-1.221-.32-1.973c-.062-.5-.1-.88-.107-1.139s.021-.421.1-.48a.448.448,0,0,1,.357-.041c.2-.006.317-.048.354-.125a.125.125,0,0,0,.089-.03.119.119,0,0,1,.088-.031l.059,0a.955.955,0,0,0,.48.011A8.631,8.631,0,0,0,39.9,5.766c1.978-.332,8.324-.7,9.279-.769a10.291,10.291,0,0,1,2.271.029c.563.093.873.136.933.135s.069-.039.024-.113c-.085-.072.032-.188.345-.348a.855.855,0,0,0,.35-.209.687.687,0,0,0-.017-.417c-.052-.3-.038-.427.043-.393.082.072.111.042.086-.087a1.794,1.794,0,0,0-.231-.523,1.632,1.632,0,0,1-.194-.384c0-.035.059-.02.18.05a.34.34,0,0,0,.214.1c.06,0,.088-.022.087-.059.076-.041,0-.159-.222-.356a6.858,6.858,0,0,0-.864-.611c-.347-.211-.685-.4-1.011-.578A1.659,1.659,0,0,0,50.45.986,1.984,1.984,0,0,1,49.6.625c-.205-.1-.408-.2-.61-.284a1.209,1.209,0,0,0-.423-.124,1.225,1.225,0,0,0-.3-.073.549.549,0,0,1-.305-.129q-.119,0-.508-.009C47.192,0,46.9,0,46.585.01s-5.5.195-5.774.222-.457.044-.537.048c-.038,0-.227.027-.563.076s-.742.121-1.216.212c-.558.057-1,.111-1.339.16s-.624.088-.863.116a6.613,6.613,0,0,0-.653.105q-.3.067-.712.139c-.279.047-.555.085-.832.114a2.932,2.932,0,0,0-.594.105c-.158.006.7-.006.341.043s-.731.119-1.125.208-.763.159-1.1.208a6.864,6.864,0,0,1-.683.079,1.545,1.545,0,0,1-.475.1c-.237.03-.474.065-.712.11a3.369,3.369,0,0,1-.742.167,2.764,2.764,0,0,0-.565.1,3.638,3.638,0,0,0-.534.074,3.454,3.454,0,0,0-.648.192c-.237.046-4.893,1.305-5.129,1.37s-.435.118-.591.161c-.2.044-.444.109-.739.195s-.6.19-.914.312-.588.227-.823.309a1.487,1.487,0,0,0-.412.183c-.078.039-.151.209-.218.509a1.946,1.946,0,0,1-.092.674.79.79,0,0,0,.267.661q.495.428-.221.455c-.2.009-.255.065-.172.175.086.146.111.255.074.331" transform="translate(-12.914 0)" fill="#fff"/><path d="M397.558,62.743l2.584.7.313,1.675h-.35l-2.2-.943-1.047-.314-.593-.453V62.219l.838.14Z" transform="translate(-281.468 -44.194)" fill="#00a6b8"/><path d="M170.18,302.441a.389.389,0,0,1,.008-.047l-1.084.325q-2.353.667-4.238,1.165c-1.257.331-.985.138-2.537.51a67.279,67.279,0,0,1-7.059,1.117c-2.561.252-4.473.245-7.341.612-5.134.669-8.165,2.113-9.82,2.364q-1.962.3-1.506.05c-1.068.121-2.177.248-3.32.373a3.3,3.3,0,0,1,.377.086,6.246,6.246,0,0,1,1.039.327q-.093,0-2.058.141-1.073.075-4.189.351t-6.648.773c-3.3.488-6.867,1.372-10.715,1.837s-7.57,1.807-11.457,2.241c-3.886.452-4.388.94-7.969,1.2-3.583.277-6.733.55-9.436.8-2.211.207-4.006.361-5.377.442-.147.01-.276.021-.411.028-1.315.074-4.093.333-4.018-1.931a.958.958,0,0,0-.038-.323c-.083-1.07-.456-3.889-.541-4.96.012-.02.024-.036.035-.057a2.6,2.6,0,0,0,.255-1.625c-.133-.984-.126-1.589.422-4.06.162-.659.373-.941.64-.851s.384.525.367,1.293c-.166.656.054-.108.248-.07s.371-.269.534-.924c.054-.515.021.22.306-.007s-.842-.368-.791.009c-.036.647.369-.106.82-.039a21.69,21.69,0,0,0,4.153-.517q2-.427,3.632-.705c1.09-.184,1.814-.295,2.181-.333a28.18,28.18,0,0,1,4.035-.9c2.336-.414,1.9-.5,4.873-1.066s5.606-.99,7.921-1.323a24.617,24.617,0,0,0,3.976-.724c.6-.048.785.005.565.152-.371.177-.515.372-.451.591,2.975-.574,7.941-1.489,12.851-2.265.461-.1.925-.207,1.4-.322q7.387-1.29,12.136-2.174a29.141,29.141,0,0,0,4.916-1.1c-.017-.127.151-.2.513-.228.256.117.725.023,1.408-.286a27.1,27.1,0,0,1,3.432-.807c1.947-.385,4.258-.793,6.946-1.236s5.486-.827,8.4-1.177,5.488-.622,7.71-.818q2.6-.229,4.636-.524c.746-.109,1.3-.189,1.677-.243,2.384,3.633,5.221,10.175-1.4,14.848" transform="translate(-51.029 -204.277)" fill="#00a6b8"/><path d="M89.692,357.038a3.208,3.208,0,0,0-1.2-1.214,5.856,5.856,0,0,1-1.229-.952,1.1,1.1,0,0,1-.208-.506,2.365,2.365,0,0,1-.024-.4.918.918,0,0,1,.352-.819,1.006,1.006,0,0,1,.32-.136c.129-.024.517-.1.75,1.008a.328.328,0,0,0,.4.28.578.578,0,0,0,.184-.068.489.489,0,0,0,.318-.541c-.313-1.461-1.089-1.63-1.681-1.511a2.409,2.409,0,0,0-.644.236,1.721,1.721,0,0,0-.9,1.407,2.659,2.659,0,0,0,0,.8,1.837,1.837,0,0,0,.294.743,5.007,5.007,0,0,0,1.349,1.132,2.993,2.993,0,0,1,1.105,1.084,1.414,1.414,0,0,1,.116.366,1.3,1.3,0,0,1-.058.652.863.863,0,0,1-.712.62l-.064.012h0c-.13.018-.47.07-.6-.736a3.649,3.649,0,0,1-.042-.388l-.008-.051a.345.345,0,0,0-.142-.24.379.379,0,0,0-.3-.05.614.614,0,0,0-.087.023.481.481,0,0,0-.391.486c.01.162.028.308.05.444a1.68,1.68,0,0,0,.618,1.167,1.188,1.188,0,0,0,.7.2,1.86,1.86,0,0,0,.361-.036c.037-.006.073-.016.129-.029a1.8,1.8,0,0,0,1.362-1.273,2.321,2.321,0,0,0,.082-1.076,2.442,2.442,0,0,0-.2-.636" transform="translate(-61.156 -250.13)" fill="#fff"/><path d="M112.515,355.175c-.824-2.319-1.671-4.615-2.517-6.824a.357.357,0,0,0-.413-.241.548.548,0,0,0-.156.051.511.511,0,0,0-.335.442c-.027.494-.178,1.73-.438,3.573a20.493,20.493,0,0,0-.24,3.737l.007.05a.355.355,0,0,0,.146.244.349.349,0,0,0,.207.061.558.558,0,0,0,.106-.011.512.512,0,0,0,.076-.021c.384-.116.4-.382.387-.479-.021-.382-.018-.815,0-1.285.579-.122,1.165-.263,1.749-.417l.535,1.489a.358.358,0,0,0,.426.254.616.616,0,0,0,.176-.065c.309-.152.322-.366.3-.478a.392.392,0,0,0-.021-.081m-3.109-1.565c.04-.466.1-.973.174-1.512.082-.59.155-1.114.215-1.568q.515,1.37,1.017,2.744c-.467.122-.938.234-1.407.337" transform="translate(-76.998 -247.258)" fill="#fff"/><path d="M131.523,351.723c-.155.016-.308.037-.462.063a8.422,8.422,0,0,0-1.147.287c-.189-.907-.361-1.819-.508-2.713-.209-1.264-.385-2.553-.528-3.856a.369.369,0,0,0-.15-.256.393.393,0,0,0-.308-.058.578.578,0,0,0-.085.023.45.45,0,0,0-.382.489c.14,1.289.32,2.6.534,3.888.175,1.057.38,2.138.607,3.214a.331.331,0,0,0,.341.276.433.433,0,0,0,.089-.008,1.065,1.065,0,0,0,.17-.049,7.078,7.078,0,0,1,1.388-.393c.124-.021.25-.04.413-.062a.537.537,0,0,0,.426-.382.457.457,0,0,0,.026-.214c-.01-.05-.069-.3-.426-.25" transform="translate(-90.884 -245.183)" fill="#fff"/><path d="M150.081,348.5c-.155.016-.308.037-.462.061a8.078,8.078,0,0,0-1.148.282c-.191-.912-.362-1.826-.51-2.72-.208-1.261-.384-2.551-.528-3.861a.382.382,0,0,0-.148-.256.4.4,0,0,0-.305-.058.765.765,0,0,0-.086.021.447.447,0,0,0-.383.488c.14,1.291.32,2.6.534,3.892.176,1.065.38,2.147.608,3.221a.334.334,0,0,0,.343.275.443.443,0,0,0,.082-.007.951.951,0,0,0,.174-.048,6.985,6.985,0,0,1,1.387-.384c.123-.021.25-.039.411-.059a.53.53,0,0,0,.427-.378.415.415,0,0,0,.027-.214c-.008-.05-.064-.3-.423-.254" transform="translate(-104.065 -242.883)" fill="#fff"/><path d="M168.627,344.17l-.029,0c-.827.171-1.537.323-2.133.452-.09-.608-.183-1.217-.283-1.827.164-.017.326-.039.486-.065.254-.042.51-.1.762-.163a.479.479,0,0,0,.386-.465.64.64,0,0,0,0-.1.338.338,0,0,0-.137-.223.394.394,0,0,0-.309-.052.4.4,0,0,0-.06.015,6.359,6.359,0,0,1-.683.146c-.192.032-.386.055-.578.07-.194-1.14-.4-2.285-.619-3.411.207-.022.406-.048.6-.08a8.045,8.045,0,0,0,1.622-.432.406.406,0,0,0,.305-.454.318.318,0,0,0-.023-.087.375.375,0,0,0-.437-.255.739.739,0,0,0-.145.038,6.737,6.737,0,0,1-1.317.35,10.64,10.64,0,0,1-1.11.115l-.042.007a.521.521,0,0,0-.418.36.428.428,0,0,0-.028.216.274.274,0,0,0,.022.073.447.447,0,0,0,.005.124c.259,1.317.5,2.659.723,3.986q.219,1.331.411,2.659a.483.483,0,0,0,.04.13.332.332,0,0,0,.163.226.382.382,0,0,0,.184.043.559.559,0,0,0,.091-.007l.058-.01q1.022-.23,2.574-.548a.462.462,0,0,0,.4-.462.473.473,0,0,0-.006-.091.362.362,0,0,0-.467-.282" transform="translate(-116.791 -239.538)" fill="#fff"/><path d="M207.093,336.035a6.236,6.236,0,0,0-.879-2.4c-.477-.74-1.52-1.047-3.2-.937l-.046.008a.511.511,0,0,0-.419.36.43.43,0,0,0-.027.219.327.327,0,0,0,.346.267c.249,1.283.477,2.56.682,3.792.134.818.259,1.63.371,2.414a.525.525,0,0,0-.231.3.414.414,0,0,0-.027.216.342.342,0,0,0,.381.276h.032a4.855,4.855,0,0,0,.612-.053,3.078,3.078,0,0,0,2.173-1.313,4.181,4.181,0,0,0,.3-2.67c-.019-.163-.043-.323-.068-.477m-2.243,3.583c-.122-.836-.255-1.694-.4-2.555-.19-1.154-.4-2.335-.626-3.515a2.083,2.083,0,0,1,1.611.646,5.241,5.241,0,0,1,.749,2.167l.006.042a5.534,5.534,0,0,1,0,2.075h0a1.482,1.482,0,0,1-1.344,1.14" transform="translate(-143.846 -236.302)" fill="#fff"/><path d="M229.36,327.862a.369.369,0,0,0-.416-.236.54.54,0,0,0-.19.065.415.415,0,0,0-.293.458.585.585,0,0,0,.029.1,1.8,1.8,0,0,1,.136.45,1.666,1.666,0,0,1-.019.645.456.456,0,0,0-.01.184.341.341,0,0,0,.382.283l.053,0,.062-.009a.474.474,0,0,0,.42-.366,2.469,2.469,0,0,0,.036-.963,2.352,2.352,0,0,0-.189-.614" transform="translate(-162.271 -232.708)" fill="#fff"/><path d="M246.965,331.875l-.031.005q-1.238.246-2.135.435-.132-.913-.282-1.829c.153-.015.312-.035.485-.061.267-.043.515-.092.762-.155a.475.475,0,0,0,.385-.467.447.447,0,0,0,0-.1.348.348,0,0,0-.442-.278c-.024.005-.051.011-.063.015a6.754,6.754,0,0,1-.681.14c-.191.03-.385.051-.58.063-.19-1.12-.4-2.269-.62-3.418.2-.019.4-.043.6-.074a7.984,7.984,0,0,0,1.622-.418.407.407,0,0,0,.309-.451.353.353,0,0,0-.024-.089.377.377,0,0,0-.436-.258,1.152,1.152,0,0,0-.146.036,6.273,6.273,0,0,1-1.316.337,9.758,9.758,0,0,1-1.088.1l-.061.009a.509.509,0,0,0-.421.355.423.423,0,0,0-.027.219.3.3,0,0,0,.019.07.472.472,0,0,0,.007.124c.265,1.356.508,2.7.723,4,.146.884.284,1.779.409,2.66a.478.478,0,0,0,.039.13.341.341,0,0,0,.352.273.478.478,0,0,0,.086-.009l.058-.008q1.022-.222,2.574-.526a.459.459,0,0,0,.4-.455.448.448,0,0,0,0-.1.365.365,0,0,0-.466-.285" transform="translate(-172.433 -230.8)" fill="#fff"/><path d="M267.625,327.5a3.321,3.321,0,0,0-1.2-1.254,5.712,5.712,0,0,1-1.232-1.006,1.134,1.134,0,0,1-.209-.518,2.2,2.2,0,0,1-.025-.4.875.875,0,0,1,.346-.8.937.937,0,0,1,.318-.122c.353-.051.6.3.757,1.044a.337.337,0,0,0,.4.289.572.572,0,0,0,.183-.063.475.475,0,0,0,.325-.535c-.313-1.463-1.081-1.662-1.673-1.569a2.368,2.368,0,0,0-.648.211,1.646,1.646,0,0,0-.9,1.377,2.624,2.624,0,0,0,0,.8,1.921,1.921,0,0,0,.293.753,5.213,5.213,0,0,0,1.346,1.184,3.2,3.2,0,0,1,1.11,1.134,1.483,1.483,0,0,1,.116.374,1.3,1.3,0,0,1-.057.646.816.816,0,0,1-.7.588l-.067.009c-.132.014-.477.052-.612-.77a3.579,3.579,0,0,1-.043-.388l-.007-.052a.356.356,0,0,0-.443-.3.6.6,0,0,0-.08.02.46.46,0,0,0-.4.476,4.486,4.486,0,0,0,.05.447c.187,1.13.8,1.419,1.378,1.419a1.981,1.981,0,0,0,.3-.025c.043-.007.085-.015.121-.025a1.713,1.713,0,0,0,1.371-1.226,2.3,2.3,0,0,0,.081-1.077,2.522,2.522,0,0,0-.2-.64" transform="translate(-187.543 -229.102)" fill="#fff"/><path d="M288.99,326.476a.385.385,0,0,0-.452-.265.6.6,0,0,0-.131.035,2.054,2.054,0,0,1-.346.085,1.582,1.582,0,0,1-1.635-.931,5.256,5.256,0,0,1-.534-1.8l-.02-.118c-.314-1.951.094-3.008,1.25-3.233a.46.46,0,0,0,.406-.447.4.4,0,0,0-.006-.1c-.028-.164-.167-.339-.5-.282-1.759.342-2.458,1.773-2.077,4.251l.021.13a4.7,4.7,0,0,0,1.139,2.7,2.319,2.319,0,0,0,1.632.684,2.585,2.585,0,0,0,.4-.033,3.245,3.245,0,0,0,.56-.144.4.4,0,0,0,.311-.45.417.417,0,0,0-.023-.087" transform="translate(-202.324 -226.877)" fill="#fff"/><path d="M310.129,323.17c-.807-2.291-1.653-4.6-2.515-6.874a.367.367,0,0,0-.417-.246.569.569,0,0,0-.149.047.5.5,0,0,0-.34.439c-.025.485-.174,1.683-.438,3.563a20.4,20.4,0,0,0-.239,3.731l.005.05a.356.356,0,0,0,.161.255.363.363,0,0,0,.2.054.472.472,0,0,0,.084-.007.751.751,0,0,0,.086-.02c.386-.108.4-.376.392-.475a12.437,12.437,0,0,1,0-1.28c.588-.111,1.174-.237,1.747-.377l.536,1.5a.357.357,0,0,0,.422.257.6.6,0,0,0,.179-.061c.312-.149.325-.365.306-.471a.251.251,0,0,0-.024-.088m-3.108-1.625c.042-.47.1-.979.175-1.513q.123-.877.212-1.555.516,1.38,1.019,2.764c-.47.112-.942.214-1.406.3" transform="translate(-217.364 -224.486)" fill="#fff"/><path d="M329.139,319.992c-.155.016-.309.037-.463.062a8.352,8.352,0,0,0-1.147.282c-.186-.889-.356-1.8-.509-2.721-.212-1.289-.389-2.58-.528-3.863a.367.367,0,0,0-.448-.317.507.507,0,0,0-.092.021.45.45,0,0,0-.384.487c.141,1.289.32,2.6.534,3.9.175,1.062.38,2.145.609,3.223a.334.334,0,0,0,.344.275.554.554,0,0,0,.082-.006,1.135,1.135,0,0,0,.171-.049,7.222,7.222,0,0,1,1.389-.382c.123-.021.25-.041.412-.061a.532.532,0,0,0,.428-.377.459.459,0,0,0,.026-.215c-.008-.052-.071-.3-.422-.254" transform="translate(-231.249 -222.629)" fill="#fff"/><path d="M350.5,316.375c-.809-2.282-1.655-4.583-2.516-6.843a.365.365,0,0,0-.42-.242.567.567,0,0,0-.147.049.5.5,0,0,0-.337.441c-.026.486-.175,1.684-.44,3.566a20.627,20.627,0,0,0-.239,3.735l.005.048a.347.347,0,0,0,.358.309.5.5,0,0,0,.084-.007.51.51,0,0,0,.092-.023c.383-.112.4-.378.388-.477-.019-.383-.019-.815,0-1.283.59-.118,1.177-.25,1.748-.4l.537,1.5a.355.355,0,0,0,.42.256.613.613,0,0,0,.18-.065.444.444,0,0,0,.3-.49.366.366,0,0,0-.021-.071m-3.109-1.588c.042-.47.1-.977.174-1.513.082-.586.154-1.109.214-1.561q.514,1.374,1.019,2.752c-.472.12-.944.228-1.407.322" transform="translate(-246.037 -219.684)" fill="#fff"/><path d="M369.59,309.7a6.06,6.06,0,0,0-.88-2.37c-.477-.725-1.522-1.005-3.194-.859l-.06.009a.523.523,0,0,0-.413.367.436.436,0,0,0-.028.217.328.328,0,0,0,.349.266c.242,1.244.471,2.511.68,3.771.127.769.252,1.577.373,2.406a.534.534,0,0,0-.233.3.437.437,0,0,0-.025.218.334.334,0,0,0,.37.271.358.358,0,0,0,.047,0,4.8,4.8,0,0,0,.613-.068,3.178,3.178,0,0,0,2.169-1.372,4.217,4.217,0,0,0,.3-2.676c-.018-.163-.042-.321-.067-.477m-2.245,3.644c-.125-.869-.259-1.722-.4-2.539-.189-1.142-.4-2.319-.628-3.5a2.041,2.041,0,0,1,1.615.6,5.18,5.18,0,0,1,.755,2.185,5.621,5.621,0,0,1,0,2.076,1.545,1.545,0,0,1-1.346,1.183" transform="translate(-259.266 -217.657)" fill="#fff"/><path d="M393.305,307.417a.328.328,0,0,0-.137-.221.457.457,0,0,0-.366-.043q-1.234.3-2.126.523c-.09-.6-.185-1.211-.284-1.816q.247-.033.5-.081c.261-.052.516-.113.759-.185a.493.493,0,0,0,.38-.475.544.544,0,0,0,0-.1.323.323,0,0,0-.134-.221.386.386,0,0,0-.3-.049.374.374,0,0,0-.075.02c-.229.068-.458.125-.683.169-.189.038-.382.065-.572.085-.187-1.087-.394-2.227-.62-3.393.195-.026.395-.058.6-.1a8.077,8.077,0,0,0,1.62-.483.418.418,0,0,0,.3-.473.562.562,0,0,0-.022-.074.379.379,0,0,0-.449-.246,1.18,1.18,0,0,0-.138.043,6.591,6.591,0,0,1-1.318.39,9.686,9.686,0,0,1-1.088.146l-.062.01a.526.526,0,0,0-.413.366.407.407,0,0,0-.028.214.386.386,0,0,0,.02.073.469.469,0,0,0,.008.125c.261,1.322.505,2.657.721,3.968.155.931.29,1.8.413,2.653a.471.471,0,0,0,.038.123.312.312,0,0,0,.131.2.35.35,0,0,0,.209.062.537.537,0,0,0,.1-.01l.057-.012q1.022-.258,2.579-.632a.478.478,0,0,0,.393-.48.309.309,0,0,0-.007-.081" transform="translate(-276.048 -213.269)" fill="#fff"/></g></svg>