<svg xmlns="http://www.w3.org/2000/svg" xmlns:xlink="http://www.w3.org/1999/xlink" width="229.547" height="183.775" viewBox="0 0 229.547 183.775"><defs><clipPath id="a"><rect width="229.547" height="183.775" fill="none"/></clipPath></defs><g clip-path="url(#a)"><path d="M424.988,72.964l.914,3.093.576,1.783-.049,4.182-2.391,3.719-4.388,2.233-4.746,2.28L413.829,91.3a7.185,7.185,0,0,1-.674,4.149c-1.026,1.63-3.883,5.351-3.883,5.351l-.21,1.347-2.038,1.566L405,102.047l-2.181-1.464.023-.994.894.018,3.048.363,1.659-1.463,1.033-5.231s-.1-3.612.507-4.087,3.171-3.754,5.5-4.828,2.244-2.214,2.244-2.214l-1.7-1.328a23.336,23.336,0,0,1-3.921-3.942c-.874-1.475-1.223-1.29-1.223-1.29a9.386,9.386,0,0,1-.3,4.146,11.755,11.755,0,0,0-1.059,4.588,22.358,22.358,0,0,0,.314,2.869l-.9,1.015-.96.058a13.971,13.971,0,0,0-2.9-1.5,2.622,2.622,0,0,1-1.272-.612l.237-1.032,2.161-.444a3.281,3.281,0,0,0,1.526-2.486,38.227,38.227,0,0,0-.294-4.465l-.35-2.619.235-1.488-1.207-.029-1.41-.1-1.038.133-1.154-1.492.27-.753,1.091-.046.795.489,2.957.192.478-1.247,2.049-.262,1.854.891.944.478,1.066-.681-.95-2.046-4.1-.646-4.618-.9-5.818-2.484-1.315.049-1.081-1.39.119-1.452,1.115-.448.788.912,6.161,1.828,5.846.694.03-1.556,1.59-1.058,1.889-.3,1.605.617,1.544,1.393.29.726,2.945.691,1.492.8Z" transform="translate(-209.347 -32.697)" fill="#fff"/><path d="M206.375,42.648q.088.849.151,2.4c.036.619.131,1.6.289,2.931s.316,2.7.486,4.114.3-.7.489.417a11.208,11.208,0,0,0,.427,1.976,4.725,4.725,0,0,1,.327.78,7.567,7.567,0,0,1,.28,1.1,9.058,9.058,0,0,0,.386,1.434,15.853,15.853,0,0,0,.664,1.634c.251.544.484,1.049.693,1.514a4.16,4.16,0,0,0,.554.986A9.342,9.342,0,0,0,213,63.77c.752.559,1.282.819,1.605.779a1.528,1.528,0,0,1,.833.289,4.653,4.653,0,0,0,1.623.308,12.243,12.243,0,0,0,2.152-.066,6.274,6.274,0,0,0,1.86-.618c.305-.141.652-.313,1.046-.518s.738-.376,1.043-.517a20.641,20.641,0,0,0,1.852-.968,8.752,8.752,0,0,0,1.289-.822c.054-.057.465-.342,1.234-.852s1.67-1.086,2.705-1.734,2.095-1.3,3.166-1.948,1.935-1.172,2.587-1.564q1.428-.876,2.228-1.4a7.317,7.317,0,0,0,.961-.7c.046-.112.108-.234.184-.375a1.907,1.907,0,0,1,.28-.385c.221-.236.22-.442,0-.624-.172-.239-.231-.388-.174-.447a.235.235,0,0,1-.122-.141.145.145,0,0,0-.067-.109.154.154,0,0,1-.068-.109c-.233-.232-.3-.4-.182-.522s.06-.215-.149-.294a.412.412,0,0,0-.479.058c-.185.074-.459.006-.822-.212-.307-.274-.582-.344-.821-.211a2.6,2.6,0,0,1-.937.271,6.868,6.868,0,0,0-1.71.636c-.818.387-1.818.887-2.993,1.5s-2.451,1.314-3.826,2.106-2.775,1.614-4.208,2.464q-1.6.977-2.823,1.632a12.323,12.323,0,0,1-1.316.666c-.128.016-.311-.117-.555-.4l-.448-.336.814-.412a9.048,9.048,0,0,0,1.484-.844c.5-.346.594-.451.29-.311a2.194,2.194,0,0,0-.641.276c-.3.165-.6.32-.905.46l-1.081.6-.266-.436a2.848,2.848,0,0,1-.457-1.272c-.153-.707-.306-1.546-.467-2.515s-.316-1.991-.46-3.067-.184,1.329-.2.446q-.123-1.311-.2-2.666t-.124-2.521c-.032-.777-.057-1.424-.074-1.94a3.2,3.2,0,0,1,.036-.943c-.014-.1.2-.3.639-.586s.979-.612,1.609-.975a21.47,21.47,0,0,1,2.178-1.085c.821-.363,1.605-.692,2.341-.99q2.305-.9,3.312-1.339c.672-.29,1.054-.547,1.151-.764q.238-.342-.519-.173c-.442.106-.687,0-.738-.3-.088-.145-.091-.261-.008-.352a2.21,2.21,0,0,1,.581-.342c.368-.147.581-.24.642-.274s.008-.143-.154-.333c-.082-.092-.182-.2-.3-.313a2.267,2.267,0,0,0-.393-.3c-.3-.223-.5-.225-.591-.007-.24.134-.364.176-.372.124-.182-.292-.765-.27-1.759.058-.683.239-1.036.074-1.064-.493a.516.516,0,0,0,.053-.28c-.013-.077-.043-.059-.091.051a2.154,2.154,0,0,1-.594.268c-.339.119-.711.258-1.112.406a10.8,10.8,0,0,1-1.164.376,6.1,6.1,0,0,1-.66.158c-.149-.084-.271-.043-.375.124a1.814,1.814,0,0,1-.413.169,2.016,2.016,0,0,0-.413.166,2.6,2.6,0,0,0-.939.273c-.607.283-.962.324-1.059.128-.009-.052-.037-.307-.079-.77s-.07-1.006-.074-1.626,0-1.252.034-1.879.046-1.1.06-1.413c.028-.211-.007-.233-.109-.065a1.246,1.246,0,0,0-.08.714c.042.255-.04.343-.249.264-.266-.02-.316-.117-.147-.295.1-.169.115-.273.043-.318s-.1-.012-.082.089-.039.16-.167.179-.206-.056-.231-.206c-.044-.257-.13-.285-.261-.089a3.436,3.436,0,0,0-.356,1.1c-.089.273-.193.545-.309.818a2.1,2.1,0,0,1-.342.589,1.99,1.99,0,0,0-.3.582,1.9,1.9,0,0,1-.161.8c-.135.381-.239.549-.309.5-.054-.719-.077-1.341-.066-1.862s.034-1.084.066-1.686.07-1.14.124-1.615a7.239,7.239,0,0,1,.205-1.428q.2-.884.4-1.726c.137-.564.265-1.062.393-1.492a2.242,2.242,0,0,1,.353-.822,3.207,3.207,0,0,1,.309-.506,5.857,5.857,0,0,1,.576-.694,8,8,0,0,0,.691-1.138c.043-.135-.072-.057-.352.237a8.909,8.909,0,0,0-.883.889,3.442,3.442,0,0,0-.5.841c-.253.447-.412.673-.474.682.131-.38.244-.694.332-.938a4.714,4.714,0,0,1,.327-.7c.127-.224.214-.392.263-.5a4.739,4.739,0,0,1,1.79-1.623c.3-.142.474-.2.513-.18s.067.109.091.261c.033.206-.012.315-.14.331a8.446,8.446,0,0,0-.528,1.271c-.1.353-.194.689-.273,1.009a2.639,2.639,0,0,0-.1.56c.009.052.077-.036.2-.259s.261-.5.4-.83a6.1,6.1,0,0,1,.748-1.417,4.675,4.675,0,0,1,1.461-.959,13.8,13.8,0,0,1,2.067-.876,15.531,15.531,0,0,1,2.724-.451,14.823,14.823,0,0,1,2.884-.08,1.3,1.3,0,0,0,.735-.011c.151-.068.09-.141-.183-.212-.283-.12-.016-.177.8-.175a18.681,18.681,0,0,1,2.434.171,17.793,17.793,0,0,0,2.69.219,3.137,3.137,0,0,0,1.013-.126,1.642,1.642,0,0,0,.477-.37,1.436,1.436,0,0,0,.277-1.283,1.531,1.531,0,0,0-.277-.785,5.924,5.924,0,0,0-1.035-.616,17.1,17.1,0,0,0-3.72-1.106,12.05,12.05,0,0,0-3.484-.276,1.349,1.349,0,0,1-.795-.058,6.467,6.467,0,0,0-2.014-.3,15.019,15.019,0,0,0-2.556,0,6.038,6.038,0,0,0-1.208.108c-.479.084-.877.147-1.2.185a18.29,18.29,0,0,0-3.847,1.365,15.43,15.43,0,0,0-3.605,2.276,9.562,9.562,0,0,0-1.527,1.434,6.9,6.9,0,0,0-1,1.681,12.07,12.07,0,0,0-.7,2.31c-.183.881-.356,1.982-.532,3.3a51.755,51.755,0,0,0-.517,6.346q-.1,3.56.07,6.347a20.55,20.55,0,0,0,.1,2.095m2.553-8.581q.067-1.957.169-3.415t.21-1.391l.1.61a6.37,6.37,0,0,1,.072.734,5.9,5.9,0,0,1-.01.82c.028.57.091,1.355.2,2.357s.214,1.91.352,2.725c.126.763.228,1.493.313,2.185a4.238,4.238,0,0,1,.053,1.2.968.968,0,0,1-.686.905c-.406.126-.646-.039-.723-.5a19.634,19.634,0,0,1-.11-2.444q-.008-1.831.061-3.79" transform="translate(-108.952 -8.003)" fill="#00a6b8"/><path d="M241.085,163.533a.675.675,0,0,0-.7.273c-.062.072-.1.046-.118-.088-.032-.257.211-.416.729-.472.59-.064.8-.151.641-.268a1.968,1.968,0,0,0-1.131-.072l-.8-.111c-.009-.066-.14-.085-.4-.058s-.536.077-.828.141a7.78,7.78,0,0,0-.866.242,1.526,1.526,0,0,0-.534.255,1.374,1.374,0,0,1-.564-.039c-.3-.031-.19-.337.339-.922.384-.569.533-.88.452-.939a.38.38,0,0,1,.176-.413,2.662,2.662,0,0,0,.909-.392c.031-.068-.15-.149-.536-.239a3.77,3.77,0,0,0-.686-.123,3.446,3.446,0,0,0-.675-.025,1.293,1.293,0,0,1-.677-.026,2.117,2.117,0,0,1-.325-.854c-.029-.259-.113-.792-.244-1.6s-.253-1.664-.359-2.573q-1.568-12.358-4.7-18.925a16.207,16.207,0,0,0-1.824-3.157,4.2,4.2,0,0,0-1.7-1.1,3.74,3.74,0,0,0-2.782.2,2.98,2.98,0,0,1-.632.365,1.411,1.411,0,0,0-.519.351q-.176.415-.677-.026a1.338,1.338,0,0,0-.878-.3,3.236,3.236,0,0,0-1.214.627,7.434,7.434,0,0,0-.763.674,9.644,9.644,0,0,0-.8.875,4.57,4.57,0,0,0-.522.795q-.181.368-.06.452c.016.13-.016.2-.086.207-.151.017-.278.2-.389.534-.18.352-.168.481.048.39.063-.071.034-.019-.1.158s-.323.446-.577.8a40.983,40.983,0,0,0-3.286,4.99,75.155,75.155,0,0,0-3.462,6.837q-1.645,3.68-3.061,7.386A50.236,50.236,0,0,0,204.83,164q-.62,2.339-.836,2.9a1.5,1.5,0,0,1-.633.808c-.43.179-.646.238-.654.171a1.694,1.694,0,0,1-.652.167,5.757,5.757,0,0,0-.717.129,7.364,7.364,0,0,1-.825.138,16.739,16.739,0,0,1-1.739.484c-.586.13-.985.207-1.207.23a3.22,3.22,0,0,0-1.174.522c-.14.083-.28.163-.421.243a1.772,1.772,0,0,0-.41.339.491.491,0,0,0-.347.383c-.019.167-.024.611-.01,1.332l.17,1.461,1.068.477q1.555.82,0,.985c-.295.034-.44.082-.433.149a2.718,2.718,0,0,0,.291.558,1.368,1.368,0,0,0,.737.513,4.249,4.249,0,0,0,1.328-.147l1.194-.324-.364.726c-.131.15-.262.314-.388.488s-.234.273-.307.278a.554.554,0,0,0-.1.556.523.523,0,0,0,.443.4,7.939,7.939,0,0,0,1.366.148c.659-.069,1-.043,1.018.089a.716.716,0,0,1-.077.3,1.555,1.555,0,0,0-.115.459,1.784,1.784,0,0,1-.113.453,4.331,4.331,0,0,0-.2,1.158c-.029.427-.057.812-.092,1.143.083.715.062,1.146-.074,1.29s-.111.345.07.588c.169.178.28.148.326-.086s.2-.828.466-1.777a10.2,10.2,0,0,1,.633-2.24,7.109,7.109,0,0,1-.069.848c-.054.5-.139,1.049-.253,1.654s-.219,1.173-.305,1.711-.168.808-.239.814-.1.144-.068.4c.016.134-.049.206-.2.219s-.326.414-.535,1.2-.687,2.391-1.449,4.844a27.126,27.126,0,0,0-.949,5.771q-.093,2.526.773,3.224a2.187,2.187,0,0,1,.657.816.5.5,0,0,0,.708.313q.431-.142.39.455c-.034.334.2.434.71.317a2.657,2.657,0,0,0,.953-.5,2.517,2.517,0,0,1,.839-.481,2.488,2.488,0,0,0,.729-.477,6.5,6.5,0,0,0,.664-1.055,19.869,19.869,0,0,0,.905-2.814q.626-2.287,1.343-5.274t1.375-5.971q.664-2.976,1-4.89c.188-.938.33-1.646.425-2.118a2.632,2.632,0,0,1,.485-1.136,2.424,2.424,0,0,1,1.092-.711c.5-.187,1.223-.429,2.161-.73s1.764-.581,2.481-.858a13.094,13.094,0,0,0,1.282-.535,1.925,1.925,0,0,1,.531-.252,4.142,4.142,0,0,0,.864-.291,11.341,11.341,0,0,1,3.213-1.335c.22-.022.325-.1.307-.233-.083-.054.061-.1.434-.141.455.081.6.064.441-.049-.008-.062.24-.19.743-.374.59-.064.906.066.944.389q.4,3.409.918,7.347t.986,7.443q.464,3.5.826,6.073a28.257,28.257,0,0,0,.538,3.146,28.643,28.643,0,0,0,1.664,5.1,8.147,8.147,0,0,0,1.858,2.905,1.645,1.645,0,0,1,.547.334c.2.174.433.378.688.614a3.3,3.3,0,0,0,.867.7,5.854,5.854,0,0,0,1.452-.058l1.442-.156-.515-.538a1.094,1.094,0,0,1-.535-.731c-.009-.069.11-.014.359.158a.6.6,0,0,0,.475.246,7.43,7.43,0,0,0,1.085-.315,4.14,4.14,0,0,0,1.069-.46,2.543,2.543,0,0,0,.48-.694,1.922,1.922,0,0,0,.049-1.492,4.655,4.655,0,0,1-.37-1.237l-.068-.582-.153.6c-.111.343-.166.481-.176.415s-.1-.48-.262-1.248a15.5,15.5,0,0,1-.349-2.039q-.149-1.264-.2-2.64c-.033-.918-.063-1.822-.092-2.705a13.339,13.339,0,0,1,.077-2.221,9.285,9.285,0,0,0,.045-2.476c-.077-1.3-.137-2.744-.17-4.317s-.088-3.133-.158-4.67a28.9,28.9,0,0,1-.009-3.4q-.061-1.471-.049-2.361c0-.592,0-1.068,0-1.431s-.019-.637-.041-.832-.054-.455-.093-.778a5.909,5.909,0,0,1-.036-2.216c.118-.244.65-.518,1.587-.815a6.43,6.43,0,0,1,1.3-.387,3.164,3.164,0,0,0,.874-.243c.367-.041.49-.282.362-.729-.036-.324-.025-.524.041-.6a1.662,1.662,0,0,1,.768-.182q1.217-.134.45-.937a1.752,1.752,0,0,0-.879-.3m-17.2-1.69-1.074.413a11.159,11.159,0,0,1-1.417.352c-.084-.057-.265-.024-.548.108s-.606.278-.958.448-.905.41-1.656.721a18.993,18.993,0,0,1-2.319.794c-1.658.511-2.6.774-2.824.8s-.266-.037-.131-.185c-.018-.128-.173-.179-.467-.144-.442.047-.669.037-.676-.025a7.843,7.843,0,0,1,.4-1.821c.291-1.019.641-2.2,1.042-3.564s.817-2.752,1.252-4.18.812-2.619,1.146-3.577c.178-.415.407-1,.694-1.751s.608-1.513.966-2.277.686-1.47.984-2.13.508-1.089.632-1.3a1.048,1.048,0,0,0,.366-.731,6.224,6.224,0,0,1,.537-1.143,12.657,12.657,0,0,1,1.036-1.689c.126-.212.266-.439.424-.688s.3-.476.423-.685c.385-.57.611-.857.685-.866a2.861,2.861,0,0,0,.2.768,3.121,3.121,0,0,1,.207.815,4.409,4.409,0,0,0,.217.915,20.63,20.63,0,0,1,.371,2.672q.122,1.517.173,2.892c.041.98.072,2.2.09,3.64s.057,2.871.111,4.276.09,2.673.109,3.787.008,1.84-.028,2.173Z" transform="translate(-103.157 -69.69)" fill="#00a6b8"/><path d="M355.431,253.832c-.777.159-1.594.312-2.463.456-1.548.26,2.346-.364,2.463-.456" transform="translate(-186.342 -134.143)" fill="#00a6b8"/><path d="M342.684,150.266s.856-4.137-4.143-5.5c-2.585-.7-9.3.9-15.189,2.615-.018-.137-.034-.287-.05-.451-.047-.79-.156-1.165-.336-1.122s-.232.511-.165,1.387c-.009.13-.016.247-.027.355-.336.1-.667.2-1,.3a68.148,68.148,0,0,0,.646-9.777c.011-.086.023-.167.034-.255a18.129,18.129,0,0,0,.129-1.981q.115-2.045.083-3.112c.006-.629.1-.967.279-1.014.113.061.194-.141.253-.607-.124-.412-.052-.657.217-.728.178-.047.232-.194.156-.444s-.067-.384.021-.407c.181-.05.208-.279.086-.694a5.724,5.724,0,0,1-.116-1.113c-.026-.575-.068-1.192-.12-1.85A16.355,16.355,0,0,1,323.39,124c.018-.587-.239-4.4-.226-4.672a1.472,1.472,0,0,0,.141-.978c-.026-.081.027-.23.157-.444.066-.106.05-.326-.054-.659s-.056-.521.122-.569c.089-.022.163-.267.219-.729-.119-1.669-.23-3.1-.341-4.278s-.27-2.768-.489-4.775-.753-7.644-1.076-10.16-.647-4.91-.989-7.194-.663-4.3-.946-6.064-.505-2.89-.652-3.387-.348-.67-.593-.518c-.152.134-.258.183-.314.151s-.1-.261-.136-.7a32.707,32.707,0,0,0-.673-3.452q-.418-1.635-.761-1.814-1.1-.782-.8.214.151.5-.577.017c-.456-.237-.711-.44-.761-.608-.095-.328-.6-.377-1.49-.141-.181.045-.309.261-.387.638-.01.051-.022.093-.032.138l-.6.006c-.027-.031-.049-.055-.077-.089-.622-.464-1.1-.426-1.416.106a.8.8,0,0,1-.561.547c-.357.095-.639.932-.84,2.509a50.183,50.183,0,0,0-.3,6.258c0,1.616-.006,2.891-.01,3.833s-.007,1.84.008,2.685.029,1.8.062,2.872.124,2.521.289,4.355a2.807,2.807,0,0,1,.1.58,2.415,2.415,0,0,0,.065.453c.1.333.291,3.917.02,3.989a2.376,2.376,0,0,0-.092.9c0,.493,0,1.053,0,1.68.2,1.648.215,2.5.039,2.544-.093.024-.11.117-.061.283.226.122.251.2.074.248-.268.074-.352.276-.255.6a14.661,14.661,0,0,0-.034,1.825c.021,1.023.032,2.207.05,3.547q-.017,1.888.043,5.226c.038,2.231.361,7.616.41,9.4q.188,7.879.027,13.159a90.411,90.411,0,0,1-.744,9.371c-.3,2.05-.989,7.6.117,8.779,1.363,1.449,1.959,2.471,4.686,1.789,1.307-.325,4.147-.869,7.141-1.419a1.4,1.4,0,0,1-.062.3c.051.168.171.087.368-.227a1.3,1.3,0,0,1,.118-.158c3.1-.566,6.292-1.134,8.078-1.475.722-.027,1.49-.078,2.331-.162.306-.031.414-.031.392-.016.871-.18,1.692-.369,2.448-.566a6.934,6.934,0,0,0,2.707-1.116c.333-.177.279-.209-.17-.086-.309.254-.5.261-.576.012-.048-.16.433-.377,1.433-.646-.011.049-.009.086.031.1.055.032.161-.018.315-.152.358-.092.5-.265.422-.519q-.169-.081.365-.224l.406-.107.133-.037c-.048-.166.327-.354,1.133-.566q2.344-.886,2.49-1.866a1.408,1.408,0,0,0,.133-.506,1.619,1.619,0,0,1,.237-.667c.077-.377.082-.6.015-.678a4.518,4.518,0,0,0-.925-.427" transform="translate(-162.995 -38.625)" fill="#00a6b8"/><path d="M149.771,68.31q-.074-1.647-.12-3.428a24.146,24.146,0,0,1,.024-2.534c-.02-1.326-.06-2.357-.115-3.1s-.1-1.312-.134-1.726-.072-.724-.106-.94a4.618,4.618,0,0,0-.232-.8c-.205-.858-.255-1.351-.144-1.477.167-.185.108-.538-.172-1.057-.228-.58-.255-.937-.079-1.068a.5.5,0,0,0,.305-.535,8.253,8.253,0,0,1-.071-1.027c-.011-.469-.007-.953.008-1.454a12.116,12.116,0,0,1,.115-1.383,4.793,4.793,0,0,1,.162-.808c.036-.171.073-.85.107-2.045s.052-2.55.067-4.073-.024-3.012-.1-4.47A32.423,32.423,0,0,0,149,33.139a13.084,13.084,0,0,0-.621-2.87,4.628,4.628,0,0,0-.705-1.615c-.139-.039-.291-.075-.459-.111a1.534,1.534,0,0,0-.448-.029c-.514.062-.716.033-.6-.092.02-.279-.14-.356-.479-.232a5.5,5.5,0,0,0-1.3.779l-1.13.882.015-.5a2.618,2.618,0,0,0,.066-.5,1.209,1.209,0,0,1,.079-.426c.08-.288.042-.433-.125-.443s-.356.113-.578.362a.829.829,0,0,1-.639.285c-.263.005-.343-.082-.242-.263-.017-.108-.167-.227-.451-.361-.356-.176-.517-.155-.48.061.016.109-.125.236-.427.384a.446.446,0,0,0-.393.3,6.742,6.742,0,0,0-.246,1.192,4.3,4.3,0,0,0-.1,1.5c.071.214.223.249.463.109.172-.131.236.055.19.559.07.435.007.664-.183.685-.129.016-.172.16-.124.431.033.218.018.327-.045.336a.788.788,0,0,0-.183.685c-.045.117-.167.381-.359.792s-.415.852-.665,1.325a94.34,94.34,0,0,0,.694,10.929c.016.083.032.17.049.258-.13,0-.277.005-.457.006-.449.007-.935,0-1.461-.008,0,0-5.779,1.87-10.421,3.867-.4.187-.867.4-1.449.666-.326.146-.626.285-.921.421-.1-1.861-.192-3.84-.264-5.956q-.136-3.8-.2-7.194c-.023-1.324-.045-2.276-.075-2.855a2.541,2.541,0,0,0-.307-1.246,3.757,3.757,0,0,1-.255-.967c-.073-.434-.142-.867-.213-1.3a9.511,9.511,0,0,0-.2-1.51,3.318,3.318,0,0,0-.6-.966,5.4,5.4,0,0,0-.825-.852c-.068-.02-.159.032-.269.156a.706.706,0,0,0-.236.652.593.593,0,0,0,.341.581c.126-.016.175.283.144.894l-.032,1-.447-1.521a6.9,6.9,0,0,1-.429-1.109c-.084-.322-.131-.51-.14-.564-.016-.108-.1-.014-.248.28s-.314.674-.5,1.138a15.877,15.877,0,0,0-.573,2.186,30.067,30.067,0,0,0-.4,3.242q-.356,2.617-.549,4.421c-.131,1.206-.233,2.257-.318,3.151a22.449,22.449,0,0,0-.107,2.336q.018.994.069,1.9a13.127,13.127,0,0,0,.067,1.318c.048.494.077.961.083,1.4s.033.992.075,1.652.075,1.26.1,1.812c.057.5.089.919.092,1.255-.318.192-.371.361-.153.508.147.128.044.276-.307.433-.165.075-.3.143-.417.209-.1-.763-.193-1.533-.281-2.317-.144-1.283-.23-2.392-.253-3.332-.074-1.65-.137-3.23-.192-4.749s-.068-2.894-.041-4.141.064-2.289.126-3.128a9.19,9.19,0,0,1,.212-1.685,7.586,7.586,0,0,0,.1-1.755,10.19,10.19,0,0,1,.092-2.128c.1-.759.191-1.115.265-1.068.063-.008.087.323.066.989a2.921,2.921,0,0,0,.011.663c.023.163.044.271.054.324.063-.008.111-.3.149-.889s.054-1.043.066-1.376c-.034-.215.01-.334.14-.348s.131-.183.015-.5c-.044-.268-.037-.408.028-.415q.22.139.292-.327a1.165,1.165,0,0,0-.186-.849c-.121-.317-.124-.537-.014-.66.12-.071.108-.126-.027-.165a1.23,1.23,0,0,0-1.225.315,3.687,3.687,0,0,0-.231.983c-.1.591-.212,1.31-.332,2.154s-.246,1.7-.364,2.576-.188,1.64-.209,2.306a47.077,47.077,0,0,0-.262,5.259,42.8,42.8,0,0,0,.217,4.62c.035.606.059,1.155.075,1.65a3.222,3.222,0,0,1-.046.919c-.029.223.016.3.138.232.111-.124.176-.1.2.058.02.11-.036.172-.164.187a5.582,5.582,0,0,0-.049,2.08,18.835,18.835,0,0,0,.194,2.091c.122.953.282,2.013.472,3.179s.391,2.373.6,3.62.395,2.4.566,3.458.339,1.965.5,2.72a4.888,4.888,0,0,0,.361,1.284c.187.365.232.635.133.813-.057.063-.058.243-.01.541a6.12,6.12,0,0,0,.263,1c.127.373.268.84.426,1.4a14.019,14.019,0,0,1,.347,1.493c.133.427.257.88.37,1.365a3.373,3.373,0,0,0,.429,1.109,3.483,3.483,0,0,0,.415.741c.078.072.275.089.6.05.386-.046.585-.041.591.012q-.069.176.506.685a2.8,2.8,0,0,0,.781.569.37.37,0,0,0,.44-.011c.147-.1.178-.2.1-.3-.157-.146.19-.241,1.032-.29a2.7,2.7,0,0,0,.965-.116.567.567,0,0,0,.249-.279,2.123,2.123,0,0,1,.383-.628q.816-.429.475-4.289a20.727,20.727,0,0,1-.008-2.154c0-.042.02-.1.025-.138a100.207,100.207,0,0,1-2.152-11.545.622.622,0,0,0,.251-.052c.2-.09.528-.215.98-.368s.923-.305,1.412-.453.947-.263,1.371-.354a7,7,0,0,1,.824-.152q.264-.044,2.013-.573t3.969-1.233q2.218-.707,4.314-1.463c.223-.08.422-.155.628-.23.049.48.1,1.041.167,1.7.091,1.76.138,2.927.134,3.511a1.967,1.967,0,0,1-.17,1.057q-.18.1-.506-3.672c.066-.4.016-.5-.151-.315a12.45,12.45,0,0,0,.359,3.359c.142.869.23,1.522.271,1.96s0,.526-.1.261l-.2-.641.066.407a1.355,1.355,0,0,0-.009.542.885.885,0,0,1-.023.459q.027.161.117,1.022c.061.574.138,1.241.232,2s.193,1.582.3,2.452.224,1.659.342,2.366a28.593,28.593,0,0,0,.631,2.951,12.937,12.937,0,0,0,.664,1.952c.13.37.344.486.646.339.248-.086.406.062.466.439a1.75,1.75,0,0,0,.352.954,1.566,1.566,0,0,0,.839.315,2.721,2.721,0,0,1,.637,0,2.507,2.507,0,0,0,.545.017q.4.037.346-.289c-.039-.218.171-.353.62-.408a6.667,6.667,0,0,0,1.331-.284c.368-.127.546-.248.529-.355a1.941,1.941,0,0,1,.292-.615.526.526,0,0,0,.235-.362,7.067,7.067,0,0,0,.087-.963c.018-.472,0-1.162-.045-2.069s-.11-2.157-.178-3.754M137.243,48.423c-.223.08-.437.156-.639.23a6.7,6.7,0,0,1,.639-.23M118.422,61.564c-.127-.778-.267-1.707-.415-2.772a.335.335,0,0,1,.271.078c.047.5.115,1.113.2,1.857a6.745,6.745,0,0,1,.092.858,5.682,5.682,0,0,0,.066.7l.107.652a4.5,4.5,0,0,1-.324-1.372m6.746-2.885c0-.025-.006-.05-.008-.075.6-.215,1.277-.455,2.035-.724.465-.167.942-.333,1.424-.5-1.288.482-2.482.932-3.451,1.3m23.039-8.556c-.054.253-.115.4-.174.435a1.162,1.162,0,0,1-.377.086c-.095.012-.179.017-.255.022,0-.076,0-.153-.007-.238a.733.733,0,0,0-.084-.293q-.293-.46-.068-.414c.274-.074.311-.2.1-.377a4.013,4.013,0,0,0-1.02-.549,5.9,5.9,0,0,0-.072-.718v-.048a2.194,2.194,0,0,1,.284-.056c.3-.033.431-.106.4-.215s-.2-.193-.5-.255a.851.851,0,0,1-.174-.071c0-.064,0-.124,0-.187-.006-.138-.012-.252-.019-.345a.676.676,0,0,0,.179-.348c.079-.279.022-.373-.173-.29a3.261,3.261,0,0,0-.011-.676,1.841,1.841,0,0,0,.036-.668,6.841,6.841,0,0,1,0-.911,2.6,2.6,0,0,0,.113-.8c-.009-.251-.018-.4-.025-.455s.049-.088.178-.105.215-.275.266-.778c0-.386.038-.557.11-.511.027.162.091.157.194-.024q.163-.184.2.639c-.032.613.007.857.12.733a3.706,3.706,0,0,0,.392-1.209,5.8,5.8,0,0,1,.177-.685.556.556,0,0,0,.061-.257c.009.056.029.192.063.407a3.042,3.042,0,0,1,.026.743c-.013.336-.007.956.012,1.865s.039,1.836.062,2.772c-.012,1.111-.007,1.949.021,2.529a5.16,5.16,0,0,1-.038,1.251" transform="translate(-61.181 -14.736)" fill="#00a6b8"/><path d="M182.357,251.259c-.007.372.009.828.04,1.379.008.16-.006-.38-.04-1.379" transform="translate(-96.37 -132.784)" fill="#00a6b8"/><path d="M182.342,249.015c.044-.515.018-.745-.075-.683,0,0,0,.008-.009.01.019.516.034.976.047,1.366a5.667,5.667,0,0,1,.036-.692" transform="translate(-96.319 -131.232)" fill="#00a6b8"/><path d="M86.55,109.08c-.3.034-.47-.2-.529-.706-.029-.3-.257-.533-.668-.689a.554.554,0,0,1-.53-.706c.057-.415-.115-.6-.506-.558q-.741.085-.706.39-.1.473-.9-.05-1.268-.623-1.756.358a1.608,1.608,0,0,1-1.132.589c-.591.068-.93.621-1.014,1.652-.289,1.058-.479,1.589-.573,1.6.01.105-.271-.172-.84-.823-.731-1.243-1.375-1.17-1.919.223q-1.7,3.576-2,13.128-.144,2.779-.168,8.694t-.043,13.288c-.012,4.914-.94-16.894-.873-11.737s.123,9.79.173,13.878c.055,2.349-.7,2.51-.705,5.173s-.03,4.764-.054,6.3a59.868,59.868,0,0,1-.136,7c-.177,2.017-.365,3.034-.562,3.06s-.505-.53-.928-1.664-.9-2.53-1.433-4.207-1.085-3.533-1.657-5.57a30.883,30.883,0,0,1-.671-3.4q-.6-2.694-1.007-5.1t-.908-5.577c-.332-2.109-.682.444-1.052-2.484s-.788-6.511-1.253-10.759c-.485-4.445-.916-4.982-1.285-8.369a51.572,51.572,0,0,0-.773-5.671,4.769,4.769,0,0,0-1.793-2.707c-.982-.811-1.723.505-2.215.562a1.044,1.044,0,0,1-.862-.363,12.065,12.065,0,0,1-1.323-1.843,7.1,7.1,0,0,0-1.725-2.1q-.642-.385-1.313.307a1.707,1.707,0,0,1-1.149.438,1.811,1.811,0,0,0-1.2.565c-2.7,1.681-9.521,8.183-15.887,32.567-.079.3-.149.577-.222.865-.219.476-.417.944-.571,1.387-.565,1.655-1.9,3.795-2.181,4.852q-.279,1.567-.573,1.6c-1.454-6.05-2.678-8.809-3.3-11.449-.742-3.139-.963-6.535-1.733-9.928s-1.382-6.236-1.829-8.543q-.633-2.994-1.571-6.8c-.628-2.536-3.937-19.981-4.324-21.68q-.561-2.387-1.188-5.39c-.419-2-2.371-13.731-2.7-14.926q-.364-1.946-.766-3.6a8.468,8.468,0,0,0-.767-2.211,3.722,3.722,0,0,1-.494-1.1,6.466,6.466,0,0,1-.165-.827.981.981,0,0,0-.688-.841q-.629-.233-.889.1c-.065.317-.208.386-.426.2-.457-.559-.788-.368-.983.577a15.371,15.371,0,0,0-.192,3.7,15.7,15.7,0,0,1,.14,1.981c-.018.309-.122.476-.318.5-.209-.077-.284-.093-.23-.05s.19.158.411.336c.427.258.6.522.535.785s-.357.425-.847.48q-.591.068-.49.977c.065.607,1.581,11.062,1.386,11.086-.1.011-.2.434-.313,1.265-.064.314-.123.7-.17,1.17a5.983,5.983,0,0,1-.3,1.342,4.725,4.725,0,0,0-.394,1.2c-.1.47-.182.864-.245,1.18-.054.417-.142.323-.255-.279S5.764,90.07,5.6,88.552L3.668,75.229a7.23,7.23,0,0,1,0-1.382c.108.088.174.005.2-.256a3.348,3.348,0,0,0-.2-1.127q-.163-1.516-.019-1.536c.3-.033.306-.39.033-1.076-.066-.607.02-.718.262-.337.526,1.168.637.848.348-.961-.148-1.309-.3-1.755-.447-1.332-.273.237-.425.228-.452-.023a2.484,2.484,0,0,1,.185-1.02.511.511,0,0,0,.084-.625q-.183-.283-.427.2c-.265.336-.57.27-.921-.2q-.691-.84-.3.037c.24.381.264.582.068.6-.188.125-.3-.017-.343-.423q-.166-1.511-1.232-.317L0,66.285l.73,8.053c.2,1.822,2.008,13.853,2.275,15.819s.53,3.7.794,5.206,3.322,17.958,3.551,18.7.363.8.4.182c-.033-.3.032-.13.206.516s.333,1.473.495,2.475.353,2.085.581,3.236.381,2.132.469,2.94c.178,1.62.108,2.342-.21,2.175-.2.021-.3.264-.3.725s.076,1.4.234,2.81l.711,6.524c.147,1.313.289,2.424.44,3.327s.4,2.1.767,3.6a6.236,6.236,0,0,1,.407,1.639q.22,1.358.551,3.006,1.405,5.991,3.026,11.247a98.043,98.043,0,0,0,4.388,11.4q1.018,2.493,1.8,4.092a26.593,26.593,0,0,0,1.5,2.742,12.9,12.9,0,0,0,1.571,2.047c.563.6,1.285,1.306,2.174,2.123l1.806,1.482,2.513-.289a12.46,12.46,0,0,0,2.181-.557,3.585,3.585,0,0,0,1.08-1.046,7.39,7.39,0,0,1,1.772-1.584,5.907,5.907,0,0,0,1.764-.973c.409-.356.5-.617.282-.8-.02-.2.018-.307.116-.321.2-.02.274-.232.231-.637-.058-.506.014-.765.212-.791.295-.035.421-.256.376-.662s-.02-.61.083-.622c.192-.022.271-.236.229-.638.019-.724.022-1.156.006-1.309s.07-.24.269-.26.275-.235.229-.642c-.112-1.008-.068-1.53.131-1.552.3-.035.322-.241.08-.621-.211-.075-.181-.286.083-.624.2-.024.173-.223-.068-.607-.033-.3.048-.468.248-.489.295-.035.332-.142.114-.322q.178-2.473.447-4.121t.529-3.36a22.661,22.661,0,0,1,.588-2.832,8.617,8.617,0,0,0,.269-1.643,4.582,4.582,0,0,1,.172-1.169,6.629,6.629,0,0,1,.211-1.487c.159-.785.341-1.648.538-2.6s.349-1.8.464-2.585c.079-.466.164-.919.252-1.367a.859.859,0,0,1,.034-.126c0-.017,0-.044,0-.063.083-.44.172-.871.262-1.3.142-.522.263-1.082.369-1.668.04-.167.078-.331.118-.494a21.84,21.84,0,0,0,.628-2.44,50.675,50.675,0,0,1,4.52-11.6l-.262-.056c.1-.132.183-.115.262.056.239.384.318.17.228-.641a3.94,3.94,0,0,1,.225-2.021c.229-.642.359-.834.389-.582s.011,1.046-.041,2.382a20.062,20.062,0,0,0-.249,3.178q-.059,2.235,0,4.837T50.4,140.8c.064,1.937.127-1.4.2.126a57.766,57.766,0,0,0,1.265,9.527,75.111,75.111,0,0,0,1.835,7.878,83.373,83.373,0,0,0,3.523,9.648,53.393,53.393,0,0,0,4.144,7.812c.363.576.725,1.143,1.086,1.717a12.7,12.7,0,0,1,.743,1.3,3.621,3.621,0,0,1,.589.624c.176.238.323.453.442.638.319.169.49.356.51.556s.53.732,1.522,1.591a16.754,16.754,0,0,0,2.6,1.925q2.723,1.69,3.416,1.142c.469-.256.4-.4-.2-.436-.711-.12-.373-.675,1.015-1.652A2.677,2.677,0,0,1,74,182.63a2.741,2.741,0,0,1,1.007.344,2.6,2.6,0,0,0,1.084.338,7.073,7.073,0,0,0,1.3-.461c.469-.257.846-.455,1.134-.59a2.367,2.367,0,0,1,.571-.217c.1-.012.143-.065.13-.173-.02-.2.293-.541.937-1.026a8.343,8.343,0,0,0,1.735-2.583,22.2,22.2,0,0,0,1.455-3.775c.145-.528.264-1,.37-1.424a2.93,2.93,0,0,0,.12-.938,2.6,2.6,0,0,0,.287-.795c.027-.209.151-1.143.367-2.81.119-.728.214-1.457.286-2.179A7.222,7.222,0,0,1,85,164.931c.027-1.537.063-2.819.1-3.848s.041-2.1.02-3.228A17.7,17.7,0,0,1,85,154.03a3.6,3.6,0,0,0,.034-1.078c-.045-.4.7,1.585.663,1.283a1.532,1.532,0,0,1-.02-1.536c-.006-.061-.018-.262-.033-.567a1.843,1.843,0,0,1,.295-.707c-.077-2.3-.2-5.708-.309-9-.057,1.461-.135,3.132-.238,5.023.01.31.024.642.049,1.02.027.474.05.94.07,1.4-.349,1.123-.427.073-.227-3.175.038-.685.074-1.341.108-1.975a11.708,11.708,0,0,1,.013-1.358q.011-2.606.015-6.679c0-1.561-.014-2.955-.043-4.19.063,1.863.158,4.491.253,7.2.008-.191.016-.385.023-.572q.1-3.079.087-7.378c.031-1.54.048-2.77.044-3.69s.009-1.741.031-2.461.039-1.463.052-2.235.054-1.77.119-3.006c-.009-1.021.007-2,.057-2.923s.1-1.6.155-2.013a10.087,10.087,0,0,0,.129-1.551c-.034-.3.044-.466.243-.489.1-.01.131-.169.1-.469.062-.316.116-.729.164-1.25s.083-1.032.126-1.55c.031-.616-.105-.96-.411-1.028m-1.888,14.19a16.427,16.427,0,0,1-.209,2.175c-.111.834-.189,1.481-.236,1.946s-.1.908-.156,1.324-.126.886-.219,1.407-.182,1.3-.269,2.335a5.872,5.872,0,0,0-.219,1.409,6.182,6.182,0,0,1-.105,1.085c-.055.417-.114.78-.178,1.1.01.1.017.408.025.918s0,1.176-.006,2c.054,2.35.009,3.278-.145,2.78a28.555,28.555,0,0,1-.368-4.714q-.349-4.565-.436-8.087t.121-7.079a22.867,22.867,0,0,1,.164-2.63c.062-.313.167-.273.312.117.264.585.451.716.568.394a4.307,4.307,0,0,0,.037-1.689c-.1-.911-.086-1.244.041-1.005a10.868,10.868,0,0,1,.519,2.015,15.766,15.766,0,0,1,.4,1.642c.113.6.185,1,.208,1.2a3.019,3.019,0,0,1,.147,1.363" transform="translate(0 -34.314)" fill="#00a6b8"/><path d="M433.04,134.849a.756.756,0,0,0-.148-.1l.054-1.746a40.155,40.155,0,0,0-4.09-2.5c-1.817-.908-2.955,0-7.046,0a22.523,22.523,0,0,0-4.574.621c-.427.025-.936.07-1.533.14-.275.036-2.127.7-4.27,1.485-.475.156-.755.256-.755.256l-8.595,2.4a10.934,10.934,0,0,1-.226-1.377c-.075-.859-.2-1.265-.368-1.225s-.21.548-.111,1.5a3.257,3.257,0,0,1-.144,1.134c0,.005-.013.01-.014.016l-.4-17.667c.038-.11.088-.193.152-.209.116.068.189-.145.226-.646-.133-.451-.074-.713.189-.783.172-.044.219-.2.138-.473s-.082-.415.007-.439c.174-.045.192-.3.055-.747a7.546,7.546,0,0,1-.152-1.207q-.068-.93-.179-2c-.076-.71-.277-4.919-.282-5.552s0-1.1.006-1.392a1.727,1.727,0,0,0,.1-1.051.777.777,0,0,1,.138-.475,1.154,1.154,0,0,0-.073-.713c-.11-.361-.078-.565.1-.612.085-.021-.038-4.267,0-4.764-.173-1.809-.33-3.352-.485-4.632s-.364-3-.644-5.174-.616-4.619-1.015-7.345S397.96,66.99,397.54,64.514s-.8-4.673-1.138-6.584-.593-3.139-.755-3.682-.364-.732-.594-.576c-.147.136-.246.188-.305.153s-.108-.287-.158-.764c-.21-1.307-.468-2.559-.777-3.747s-.58-1.847-.806-1.983q-1.108-.883-.779.2c.111.362-.079.364-.56,0-.455-.268-.712-.494-.764-.678-.107-.36-.6-.429-1.462-.2-.172.045-.29.275-.355.678s-.12.618-.158.629-.221-.185-.528-.593c-.628-.518-1.087-.5-1.382.069a.744.744,0,0,1-.526.575c-.348.091-.593.988-.731,2.682a58.793,58.793,0,0,0-.073,6.75c.054,1.744.1,3.123.122,4.139s.062,1.986.1,2.9.205,4.285.273,5.44.433,7.636.659,9.627a3.257,3.257,0,0,1,.12.628,3.056,3.056,0,0,0,.076.491q.164.547-.225.647a2.677,2.677,0,0,0-.06.967c.02.532.041,1.14.056,1.815q.388,2.681.123,2.749c-.083.021-.1.126-.043.3.225.137.251.227.08.272-.262.067-.335.285-.227.644a15.891,15.891,0,0,0,.031,1.969q.081,1.664.17,3.834c.036,1.36.294,7.227.411,9.633s.4,8.111.505,10.032q.459,8.521.493,14.215t-.439,10.659a23.745,23.745,0,0,1-.5,3.929c-.377.781-.882,1.841-1.322,3a8.14,8.14,0,0,0-.9,3.5,4.045,4.045,0,0,0,1.165,3.7c2.479,2.064,18.657-5.064,21.587-6.384,3.675-.976,10.6-3.266,12.035-3.383q2.8-.219,5.478-.631c1.785-.273-4.116.456-2.728.091a5.887,5.887,0,0,0,2.6-1.121c.317-.179.26-.214-.173-.1-.291.27-.476.273-.561,0-.051-.175.441-.409,1.478-.679s1.583-.312,1.637-.136c-.059.116-.062.189,0,.221s.16-.014.3-.151c.346-.091.477-.273.394-.545q-.169-.1.349-.234l.39-.1.133-.039c-.056-.177.305-.371,1.082-.573q2.258-.881,2.359-1.935a1.46,1.46,0,0,0,.114-.547,1.81,1.81,0,0,1,.207-.712c.066-.4.061-.644-.007-.729m-24.294,10.383q.518-.114,1.017-.229c-.377.13-.744.26-1.092.385ZM392.195,49.742c.084-.024.2.287.348.929a25.588,25.588,0,0,1,.41,2.527c.1.952.909,1.771,1.071,2.461s.253,1.082.278,1.17a1.144,1.144,0,0,1-.011.881,6.124,6.124,0,0,0-.017,1.1c.019.535.035,1.141.054,1.817s-.654,1.338-.651,1.969a3.089,3.089,0,0,1-.174,1.29c-.032.2-.056.431-.074.678a1.686,1.686,0,0,0,.014.51,38.923,38.923,0,0,1,.078,4.1,7.25,7.25,0,0,1-.232.866c-.028.058-.055-.108-.078-.494-.077-.27-.289-3.407-.41-4.744s-.2-2.824-.224-4.476q-.085-2.616-.371-4.957a27.818,27.818,0,0,1-.266-3.221,19.428,19.428,0,0,1-.1-1.952c.009-.44.123-.592.355-.455m-4.14.2c-.044-.766.02-1.174.192-1.219l1.1,3.664c.269.905,1.212,2.081,1.463,3.527s-.176,3.014.1,4.7.65,5.706.923,7.389.485,3.24.633,4.666c.015.679.322,6.257.47,6.9s.261,1.1.342,1.375c.246.812.324.453.232-1.087-.02-1.945-.2-7.8-.088-7.732s.463,6.024.6,8.037a5.191,5.191,0,0,0,.081,1.443c.091.464.167.786.22.967a7.128,7.128,0,0,1,.154,1.2c.048.622.081,1.273.095,1.951s.006,1.339-.034,1.985-.061,1.114-.065,1.407a9.566,9.566,0,0,0,.059,1.6c.068.861.14,1.864.207,3.018.206,1.61.567,7.522.732,9.772.144,2.007.416,6.819.59,9.432l-.262,1.683c-.024-.313-.046-.626-.064-.948-.077-.566-.156-1.3-.244-2.2s-.343-5.464-.452-6.606-.206-2.313-.289-3.511-.365-6.3-.492-7.344a8.618,8.618,0,0,0-.314-1.748c-.216-.872-.429-1.813-.639-2.832q-.44-1.933-.966-4.139t-.962-4.139c-.3-1.292-.748-7.362-.919-8.393s-.28-1.78-.33-2.259c-.147-1.424-.424-5.25-.612-6.808s-.343-3.009-.464-4.344-.232-2.476-.331-3.426a10.591,10.591,0,0,1-.1-1.73,1.516,1.516,0,0,0,.061-.966c-.082-.419-.174-.809-.282-1.172a9,9,0,0,1-.352-2.106M417.3,142.392l.588-.385c.16-.01.309-.017.474-.027a5.69,5.69,0,0,1-1.062.412" transform="translate(-203.547 -24.586)" fill="#00a6b8"/><path d="M18.361,12.908c.008.121.269.263.8.424l.782.156-.467.471a2.589,2.589,0,0,0-.555.657c0,.06.154.162.449.3s.647.3,1.041.462a7.057,7.057,0,0,0,1.085.369,4.277,4.277,0,0,0,1.174.1c.452-.016,1.017-.068,1.7-.152s8.754-2.168,9.85-2.331c1.292-.168,2.192-.306,2.709-.416s1.248-.273,2.216-.489c.321-.072.737-.178,1.252-.32a1.985,1.985,0,0,1,.58-.109c.133.115.088.54-.141,1.275q-.418,1.743-.76,3.983t-.492,3.427c.016.362.052,1.575.1,3.633s.151,4.435.3,7.124.433,8.853.585,11.693.3,5.264.447,7.259c.007.18.015.334.02.5l-.16-.337S41.1,70.353,44.5,70.353a8.749,8.749,0,0,0,1.479-.125l1.621.026a11.857,11.857,0,0,0,1.267.045c.323-.011.483-.049.482-.108a2.529,2.529,0,0,0-.415-.622,1.682,1.682,0,0,1-.184-.414c.055-.039.106-.073.153-.11a.28.28,0,0,1,.011.068c.006.12.139.179.4.167a7.755,7.755,0,0,0,1.73-.517,10.809,10.809,0,0,0,1.244-.452c.192-.1.252-.208.183-.328-.2-.114-.239-.232-.112-.359.061-.063.027-.092-.1-.089-.262.01-.34-.047-.25-.172a1.483,1.483,0,0,1,.617-.384l.563-.386c0-.059-.026-.241-.07-.54s-.108-.664-.19-1.088-.174-1.052-.273-1.9-.168-1.689-.2-2.537q-.151-1.269-.229-2.128c-.061-.575-.088-.892-.092-.951a5.821,5.821,0,0,1-.257-1.54c-.106-.964-.21,1.212-.4-.237-.1-.727-.181-1.632-.257-2.718s-.124-2.133-.132-3.131,0-1.866.037-2.592a2.563,2.563,0,0,1,.242-1.282,3.5,3.5,0,0,0,.175-1.6q-.008-1.412-.066-5.136c-.047-2.664-.235-8.373-.283-10.341s-.121-3.722-.218-5.266-.219-2.912-.366-4.12-.312-2.413-.491-3.618q-.373-1.987-.522-3.211c-.1-.814-.157-1.433-.174-1.855s.034-.685.161-.781a.729.729,0,0,1,.58-.067c.325-.01.516-.078.576-.2a.2.2,0,0,0,.144-.049.193.193,0,0,1,.143-.05l.1,0a1.554,1.554,0,0,0,.781.017,14.048,14.048,0,0,0,1.641-.287c3.219-.54,13.549-1.133,15.1-1.252a16.75,16.75,0,0,1,3.7.047c.916.151,1.42.222,1.518.22s.112-.063.04-.183c-.138-.116.052-.306.561-.566a1.391,1.391,0,0,0,.57-.339A1.119,1.119,0,0,0,75,6.632c-.085-.483-.062-.7.071-.639.133.117.181.068.14-.142A2.92,2.92,0,0,0,74.833,5a2.656,2.656,0,0,1-.316-.625c0-.057.1-.032.294.081a.553.553,0,0,0,.349.171c.1,0,.143-.036.141-.1.124-.067.007-.258-.361-.579a11.162,11.162,0,0,0-1.407-.995c-.565-.343-1.114-.652-1.646-.94a2.7,2.7,0,0,0-1.183-.41,3.229,3.229,0,0,1-1.386-.588c-.334-.168-.663-.323-.993-.463a1.967,1.967,0,0,0-.689-.2,1.994,1.994,0,0,0-.49-.119.893.893,0,0,1-.5-.21q-.193.008-.826-.014C65.4-.006,64.929,0,64.411.016s-8.946.317-9.4.361-.743.071-.874.077c-.062,0-.37.044-.916.124s-1.208.2-1.98.345c-.908.092-1.632.181-2.179.26s-1.016.143-1.4.189a10.763,10.763,0,0,0-1.063.172q-.48.11-1.158.227c-.454.076-.9.139-1.354.186a4.772,4.772,0,0,0-.967.171c-.257.01,1.138-.01.555.07s-1.19.194-1.831.339-1.242.258-1.789.338A11.171,11.171,0,0,1,38.942,3a2.514,2.514,0,0,1-.773.166c-.386.048-.772.106-1.158.179a5.483,5.483,0,0,1-1.208.272,4.5,4.5,0,0,0-.919.17,5.922,5.922,0,0,0-.869.12,5.622,5.622,0,0,0-1.055.312C32.575,4.3,25,6.349,24.612,6.455s-.708.192-.961.262c-.323.072-.722.178-1.2.317s-.977.309-1.488.508-.957.369-1.339.5a2.421,2.421,0,0,0-.67.3c-.127.063-.246.34-.355.828a3.167,3.167,0,0,1-.149,1.1,1.286,1.286,0,0,0,.435,1.075q.806.7-.36.74c-.323.014-.415.106-.28.285.14.238.181.415.12.539" transform="translate(-9.608 0)" fill="#00a6b8"/><path d="M398.368,63.072l4.206,1.136.51,2.726h-.569L398.938,65.4l-1.7-.511-.965-.737V62.219l1.364.229Z" transform="translate(-209.417 -32.881)" fill="#fff"/><path d="M231.9,311.76a.639.639,0,0,1,.012-.077l-1.764.53q-3.83,1.086-6.9,1.9c-2.046.538-1.6.224-4.13.83a109.529,109.529,0,0,1-11.49,1.818c-4.168.411-7.28.4-11.949,1-8.357,1.089-13.29,3.439-15.983,3.848q-3.193.483-2.451.081c-1.739.2-3.544.4-5.4.607a5.37,5.37,0,0,1,.614.141,10.161,10.161,0,0,1,1.691.533q-.152.008-3.35.23-1.747.122-6.818.572t-10.821,1.258c-5.367.794-11.178,2.234-17.44,2.99s-12.322,2.941-18.648,3.648c-6.326.736-7.142,1.53-12.97,1.954-5.831.451-10.958.895-15.358,1.3-3.6.338-6.52.588-8.752.719-.24.016-.448.034-.67.046-2.14.12-6.662.542-6.54-3.142a1.559,1.559,0,0,0-.061-.526c-.135-1.742-.743-6.329-.88-8.073.02-.032.039-.059.057-.093a4.235,4.235,0,0,0,.415-2.645c-.217-1.6-.206-2.586.686-6.608.264-1.072.606-1.532,1.042-1.385s.624.854.6,2.1c-.271,1.067.087-.176.4-.114s.6-.437.869-1.5c.088-.838.033.357.5-.012s-1.371-.6-1.288.015c-.059,1.053.6-.173,1.334-.063s2.989-.185,6.759-.841q3.248-.695,5.912-1.148c1.773-.3,2.952-.48,3.55-.542a45.869,45.869,0,0,1,6.567-1.459c3.8-.673,3.1-.811,7.931-1.735,4.829-.9,9.125-1.611,12.893-2.154a40.06,40.06,0,0,0,6.471-1.179c.972-.078,1.278.009.92.248-.6.289-.837.606-.734.962,4.843-.935,12.925-2.424,20.917-3.687.75-.166,1.506-.337,2.276-.523q12.023-2.1,19.754-3.538c5.162-.965,7.836-1.561,8-1.79-.027-.207.246-.333.836-.371.416.19,1.181.038,2.291-.466a44.118,44.118,0,0,1,5.586-1.313c3.17-.627,6.93-1.29,11.306-2.012s8.93-1.347,13.671-1.915,8.933-1.012,12.549-1.331q4.226-.373,7.545-.853c1.215-.178,2.12-.308,2.729-.4,3.88,5.914,8.5,16.56-2.285,24.167" transform="translate(-37.966 -151.985)" fill="#002a3f"/><path d="M91.946,360.107a5.222,5.222,0,0,0-1.959-1.975,9.529,9.529,0,0,1-2-1.549,1.782,1.782,0,0,1-.339-.824,3.849,3.849,0,0,1-.04-.651,1.494,1.494,0,0,1,.572-1.333,1.637,1.637,0,0,1,.521-.222c.21-.039.842-.161,1.22,1.64a.534.534,0,0,0,.651.455.938.938,0,0,0,.3-.111.8.8,0,0,0,.518-.88c-.51-2.378-1.772-2.653-2.736-2.459a3.923,3.923,0,0,0-1.049.385,2.8,2.8,0,0,0-1.459,2.291,4.327,4.327,0,0,0,0,1.3,2.99,2.99,0,0,0,.479,1.209,8.15,8.15,0,0,0,2.2,1.842,4.871,4.871,0,0,1,1.8,1.764,2.3,2.3,0,0,1,.19.6,2.107,2.107,0,0,1-.095,1.061,1.405,1.405,0,0,1-1.158,1.009l-.1.02v0c-.211.029-.765.114-.982-1.2a5.935,5.935,0,0,1-.069-.631l-.013-.083a.561.561,0,0,0-.232-.39.617.617,0,0,0-.49-.082,1.009,1.009,0,0,0-.142.037.783.783,0,0,0-.636.79c.017.263.046.5.082.722a2.735,2.735,0,0,0,1.006,1.9,1.934,1.934,0,0,0,1.141.332,3.023,3.023,0,0,0,.588-.059c.06-.01.119-.025.21-.047a2.921,2.921,0,0,0,2.217-2.073,3.778,3.778,0,0,0,.133-1.752,3.975,3.975,0,0,0-.323-1.034" transform="translate(-45.501 -186.1)" fill="#fff"/><path d="M115.1,359.614c-1.342-3.774-2.719-7.511-4.1-11.107a.581.581,0,0,0-.672-.392.894.894,0,0,0-.254.083.832.832,0,0,0-.545.719c-.044.8-.29,2.815-.713,5.816a33.353,33.353,0,0,0-.39,6.083l.011.081a.577.577,0,0,0,.237.4.568.568,0,0,0,.336.1.91.91,0,0,0,.172-.018.832.832,0,0,0,.124-.034c.625-.189.649-.621.63-.78-.034-.622-.03-1.326,0-2.091.943-.2,1.9-.428,2.847-.679l.871,2.424a.583.583,0,0,0,.693.414,1,1,0,0,0,.287-.105c.5-.248.525-.6.494-.778a.639.639,0,0,0-.035-.132m-5.06-2.547c.066-.759.163-1.584.283-2.461.133-.96.252-1.813.35-2.553q.838,2.229,1.656,4.466c-.76.2-1.526.381-2.289.548" transform="translate(-57.288 -183.964)" fill="#fff"/><path d="M133.765,355.828c-.252.025-.5.061-.752.1a13.707,13.707,0,0,0-1.867.468c-.308-1.477-.588-2.961-.826-4.416-.341-2.057-.627-4.155-.86-6.276a.6.6,0,0,0-.244-.416.64.64,0,0,0-.5-.095.939.939,0,0,0-.138.037.732.732,0,0,0-.621.8c.228,2.1.522,4.226.869,6.328.285,1.72.619,3.479.989,5.231a.538.538,0,0,0,.555.45.7.7,0,0,0,.145-.014,1.733,1.733,0,0,0,.276-.08,11.519,11.519,0,0,1,2.259-.639c.2-.033.407-.065.672-.1a.874.874,0,0,0,.694-.622.743.743,0,0,0,.043-.348c-.016-.082-.112-.49-.693-.407" transform="translate(-67.619 -182.42)" fill="#fff"/><path d="M152.323,352.621c-.252.025-.5.059-.752.1a13.133,13.133,0,0,0-1.868.458c-.311-1.484-.588-2.972-.83-4.427-.339-2.052-.625-4.152-.86-6.284a.622.622,0,0,0-.241-.417.652.652,0,0,0-.5-.095,1.229,1.229,0,0,0-.14.034.728.728,0,0,0-.623.8c.228,2.1.522,4.231.869,6.334.287,1.733.618,3.495.989,5.242a.543.543,0,0,0,.559.447.722.722,0,0,0,.133-.012,1.541,1.541,0,0,0,.283-.078,11.368,11.368,0,0,1,2.258-.624c.2-.034.407-.063.669-.1a.862.862,0,0,0,.7-.616.676.676,0,0,0,.044-.349c-.013-.082-.1-.481-.688-.414" transform="translate(-77.426 -180.709)" fill="#fff"/><path d="M171.265,348.522l-.048.007c-1.345.278-2.5.526-3.472.736-.147-.989-.3-1.981-.461-2.973.266-.027.53-.063.79-.105.413-.068.831-.157,1.241-.265a.78.78,0,0,0,.628-.756,1.04,1.04,0,0,0-.008-.161.551.551,0,0,0-.223-.363.641.641,0,0,0-.5-.085.666.666,0,0,0-.1.024,10.346,10.346,0,0,1-1.111.238c-.313.053-.629.09-.941.114-.315-1.855-.654-3.719-1.008-5.552.336-.036.661-.078.973-.131a13.091,13.091,0,0,0,2.64-.7.66.66,0,0,0,.5-.739.516.516,0,0,0-.037-.142.611.611,0,0,0-.712-.415,1.2,1.2,0,0,0-.236.062,10.968,10.968,0,0,1-2.144.57,17.3,17.3,0,0,1-1.806.187l-.068.012a.848.848,0,0,0-.68.586.7.7,0,0,0-.045.351.446.446,0,0,0,.036.118.728.728,0,0,0,.009.2c.422,2.144.817,4.328,1.176,6.488q.356,2.167.669,4.328a.785.785,0,0,0,.065.212.54.54,0,0,0,.265.368.621.621,0,0,0,.3.069.907.907,0,0,0,.148-.012l.095-.017q1.663-.374,4.19-.892a.751.751,0,0,0,.653-.752.767.767,0,0,0-.009-.148.588.588,0,0,0-.761-.459" transform="translate(-86.894 -178.22)" fill="#fff"/><path d="M209.967,338.141a10.151,10.151,0,0,0-1.431-3.9c-.777-1.2-2.473-1.7-5.214-1.525l-.075.013a.832.832,0,0,0-.682.586.7.7,0,0,0-.044.357.532.532,0,0,0,.563.434c.405,2.089.776,4.166,1.109,6.171.218,1.332.422,2.652.6,3.929a.854.854,0,0,0-.376.482.673.673,0,0,0-.044.351.556.556,0,0,0,.62.449l.052,0a7.9,7.9,0,0,0,1-.086,5.01,5.01,0,0,0,3.537-2.137c.559-.825.72-2.244.495-4.345-.032-.265-.07-.526-.111-.777m-3.651,5.832c-.2-1.36-.414-2.758-.645-4.158-.309-1.878-.653-3.8-1.019-5.721a3.391,3.391,0,0,1,2.622,1.051,8.529,8.529,0,0,1,1.219,3.527l.01.068a9.007,9.007,0,0,1,0,3.377h0a2.413,2.413,0,0,1-2.187,1.855" transform="translate(-107.023 -175.813)" fill="#fff"/><path d="M229.928,328.014a.6.6,0,0,0-.678-.383.879.879,0,0,0-.309.105.676.676,0,0,0-.477.746.951.951,0,0,0,.048.17,2.937,2.937,0,0,1,.221.733,2.711,2.711,0,0,1-.032,1.05.742.742,0,0,0-.016.3.555.555,0,0,0,.622.461c.027,0,.055,0,.086,0l.1-.015a.771.771,0,0,0,.684-.6,4.019,4.019,0,0,0,.058-1.567,3.826,3.826,0,0,0-.308-1" transform="translate(-120.733 -173.138)" fill="#fff"/><path d="M249.6,336.231l-.05.008q-2.014.4-3.474.707-.215-1.486-.46-2.978c.249-.024.508-.058.789-.1.434-.069.839-.15,1.241-.252a.774.774,0,0,0,.626-.76.727.727,0,0,0-.007-.156.566.566,0,0,0-.72-.453c-.039.008-.083.018-.1.025a10.981,10.981,0,0,1-1.109.228c-.31.049-.627.083-.944.1-.309-1.823-.649-3.693-1.009-5.563.323-.031.647-.069.969-.12a12.993,12.993,0,0,0,2.64-.68.663.663,0,0,0,.5-.735.575.575,0,0,0-.04-.144.613.613,0,0,0-.709-.421,1.875,1.875,0,0,0-.238.059,10.209,10.209,0,0,1-2.142.548,15.885,15.885,0,0,1-1.77.168l-.1.015a.829.829,0,0,0-.685.579.687.687,0,0,0-.044.356.492.492,0,0,0,.032.114.768.768,0,0,0,.011.2c.431,2.206.826,4.4,1.176,6.505.237,1.438.462,2.9.666,4.33a.778.778,0,0,0,.064.212.555.555,0,0,0,.572.445.77.77,0,0,0,.14-.014l.095-.013q1.663-.361,4.189-.856a.747.747,0,0,0,.654-.741.73.73,0,0,0-.007-.155.6.6,0,0,0-.758-.464" transform="translate(-128.293 -171.719)" fill="#fff"/><path d="M269.879,330.6a5.4,5.4,0,0,0-1.948-2.04,9.3,9.3,0,0,1-2-1.637,1.845,1.845,0,0,1-.341-.843,3.58,3.58,0,0,1-.041-.655,1.424,1.424,0,0,1,.563-1.3,1.527,1.527,0,0,1,.518-.2c.574-.083.977.485,1.232,1.7a.549.549,0,0,0,.644.47.932.932,0,0,0,.3-.1.774.774,0,0,0,.529-.87c-.509-2.381-1.76-2.705-2.723-2.554a3.853,3.853,0,0,0-1.055.343,2.679,2.679,0,0,0-1.466,2.242,4.271,4.271,0,0,0,0,1.3,3.127,3.127,0,0,0,.476,1.226,8.486,8.486,0,0,0,2.191,1.927,5.213,5.213,0,0,1,1.807,1.845,2.413,2.413,0,0,1,.19.609,2.114,2.114,0,0,1-.092,1.052,1.328,1.328,0,0,1-1.142.957l-.108.015c-.215.024-.777.085-1-1.253a5.81,5.81,0,0,1-.07-.631l-.011-.085a.579.579,0,0,0-.72-.487.977.977,0,0,0-.131.032.748.748,0,0,0-.648.775,7.293,7.293,0,0,0,.081.728c.3,1.84,1.3,2.31,2.243,2.31a3.227,3.227,0,0,0,.491-.042c.07-.012.138-.025.2-.041a2.789,2.789,0,0,0,2.232-2,3.75,3.75,0,0,0,.131-1.752,4.105,4.105,0,0,0-.325-1.041" transform="translate(-139.535 -170.456)" fill="#fff"/><path d="M291.592,330.91a.627.627,0,0,0-.736-.43.97.97,0,0,0-.213.058,3.344,3.344,0,0,1-.563.139,2.575,2.575,0,0,1-2.661-1.515,8.552,8.552,0,0,1-.869-2.927l-.033-.191c-.512-3.175.153-4.9,2.035-5.262a.749.749,0,0,0,.662-.728.649.649,0,0,0-.009-.164c-.045-.266-.271-.552-.817-.459-2.863.557-4,2.886-3.38,6.919l.034.212a7.646,7.646,0,0,0,1.854,4.4,3.774,3.774,0,0,0,2.656,1.113,4.207,4.207,0,0,0,.659-.054,5.289,5.289,0,0,0,.912-.234.658.658,0,0,0,.507-.733.683.683,0,0,0-.038-.141" transform="translate(-150.532 -168.8)" fill="#fff"/><path d="M312.71,327.642c-1.314-3.729-2.691-7.492-4.093-11.188a.6.6,0,0,0-.679-.4.925.925,0,0,0-.242.076.817.817,0,0,0-.553.714c-.041.789-.282,2.739-.713,5.8a33.2,33.2,0,0,0-.389,6.073l.009.081a.58.58,0,0,0,.262.414.591.591,0,0,0,.325.088.77.77,0,0,0,.137-.012,1.234,1.234,0,0,0,.14-.032c.628-.176.654-.613.638-.774a20.216,20.216,0,0,1,0-2.084c.957-.18,1.911-.386,2.844-.614l.873,2.449a.58.58,0,0,0,.686.419.975.975,0,0,0,.291-.1c.508-.242.53-.594.5-.766a.407.407,0,0,0-.039-.143M307.651,325c.068-.765.163-1.593.284-2.462q.2-1.427.346-2.531.84,2.246,1.659,4.5c-.765.182-1.533.348-2.289.494" transform="translate(-161.722 -167.021)" fill="#fff"/><path d="M331.382,324.111c-.253.025-.5.061-.754.1a13.594,13.594,0,0,0-1.867.458c-.3-1.447-.58-2.936-.828-4.43-.345-2.1-.633-4.2-.86-6.287a.6.6,0,0,0-.729-.515.832.832,0,0,0-.149.034.732.732,0,0,0-.625.793c.229,2.1.521,4.228.869,6.34.284,1.728.618,3.492.991,5.245a.543.543,0,0,0,.56.447.894.894,0,0,0,.133-.01,1.842,1.842,0,0,0,.278-.08,11.754,11.754,0,0,1,2.26-.621c.2-.033.407-.066.671-.1a.865.865,0,0,0,.7-.614.747.747,0,0,0,.042-.349c-.012-.084-.115-.485-.687-.414" transform="translate(-172.053 -165.639)" fill="#fff"/><path d="M353.079,320.825c-1.316-3.714-2.693-7.46-4.1-11.137a.594.594,0,0,0-.684-.393.925.925,0,0,0-.239.08.819.819,0,0,0-.548.717c-.042.791-.285,2.741-.716,5.8a33.589,33.589,0,0,0-.389,6.08l.009.078a.565.565,0,0,0,.583.5.815.815,0,0,0,.136-.012.828.828,0,0,0,.15-.037c.623-.182.646-.614.632-.776-.032-.624-.032-1.326,0-2.089.961-.192,1.915-.407,2.845-.65l.873,2.434a.578.578,0,0,0,.684.417,1,1,0,0,0,.293-.106.723.723,0,0,0,.495-.8.6.6,0,0,0-.034-.115m-5.06-2.584c.069-.765.163-1.59.283-2.463.133-.954.251-1.8.348-2.541q.837,2.236,1.658,4.479c-.769.2-1.537.372-2.289.524" transform="translate(-183.055 -163.449)" fill="#fff"/><path d="M372.464,311.748a9.863,9.863,0,0,0-1.433-3.858c-.777-1.18-2.477-1.636-5.2-1.4l-.1.015a.851.851,0,0,0-.673.6.709.709,0,0,0-.046.353.533.533,0,0,0,.568.432c.395,2.025.767,4.087,1.106,6.138.207,1.251.41,2.568.607,3.916a.87.87,0,0,0-.38.487.711.711,0,0,0-.041.355.543.543,0,0,0,.6.441.589.589,0,0,0,.076,0,7.8,7.8,0,0,0,1-.111,5.173,5.173,0,0,0,3.531-2.233c.558-.84.718-2.262.49-4.355-.029-.265-.068-.522-.108-.776m-3.654,5.931c-.2-1.415-.422-2.8-.643-4.133-.307-1.859-.652-3.775-1.022-5.7a3.323,3.323,0,0,1,2.628.976A8.432,8.432,0,0,1,371,312.374a9.147,9.147,0,0,1,0,3.378,2.514,2.514,0,0,1-2.191,1.926" transform="translate(-192.898 -161.941)" fill="#fff"/><path d="M396.236,311.914a.533.533,0,0,0-.224-.36.744.744,0,0,0-.6-.071q-2.008.488-3.461.851c-.147-.983-.3-1.971-.463-2.956q.4-.053.806-.132c.424-.085.84-.184,1.235-.3a.8.8,0,0,0,.619-.774.884.884,0,0,0-.007-.156.525.525,0,0,0-.219-.359.628.628,0,0,0-.492-.08.62.62,0,0,0-.122.032c-.372.11-.745.2-1.112.275-.308.061-.621.105-.931.139-.3-1.769-.641-3.624-1.009-5.522.317-.042.642-.095.984-.159a13.151,13.151,0,0,0,2.637-.787.681.681,0,0,0,.488-.769.923.923,0,0,0-.036-.12.618.618,0,0,0-.731-.4,1.913,1.913,0,0,0-.224.069,10.728,10.728,0,0,1-2.144.634,15.754,15.754,0,0,1-1.77.238l-.1.016a.855.855,0,0,0-.673.6.663.663,0,0,0-.045.348.63.63,0,0,0,.033.119.762.762,0,0,0,.012.2c.424,2.152.822,4.325,1.174,6.458.252,1.515.472,2.922.671,4.318a.769.769,0,0,0,.062.2.507.507,0,0,0,.214.329.569.569,0,0,0,.339.1.873.873,0,0,0,.169-.017l.092-.019q1.663-.419,4.2-1.029a.779.779,0,0,0,.639-.782.5.5,0,0,0-.011-.132" transform="translate(-205.384 -158.675)" fill="#fff"/></g></svg>